<?xml version="1.0" encoding="UTF-8"?>
<svg version="1.1" xmlns="http://www.w3.org/2000/svg" width="700" height="700">
<path d="M0 0 C231 0 462 0 700 0 C700 231 700 462 700 700 C469 700 238 700 0 700 C0 469 0 238 0 0 Z " fill="#FEFEFE" transform="translate(0,0)"/>
<path d="M0 0 C3.23729119 2.49541196 5.76300366 5.06410254 7 9 C7.6897785 14.91238713 6.92206692 18.47261264 3.47265625 23.36328125 C1.13217488 25.9645059 -0.53490492 26.54234593 -4 27 C-12.2793251 27.30614868 -12.2793251 27.30614868 -15.71875 24.6953125 C-19.38141212 20.41510851 -20.30039122 16.6141031 -20.21875 11.0625 C-19.77696084 6.89705934 -18.06208723 3.96251655 -15 1.1875 C-10.10589431 -1.71837525 -5.38328321 -1.26412561 0 0 Z " fill="#060606" transform="translate(407,324)"/>
<path d="M0 0 C3.23729119 2.49541196 5.76300366 5.06410254 7 9 C7.6897785 14.91238713 6.92206692 18.47261264 3.47265625 23.36328125 C1.13217488 25.9645059 -0.53490492 26.54234593 -4 27 C-12.2793251 27.30614868 -12.2793251 27.30614868 -15.71875 24.6953125 C-19.38141212 20.41510851 -20.30039122 16.6141031 -20.21875 11.0625 C-19.77696084 6.89705934 -18.06208723 3.96251655 -15 1.1875 C-10.10589431 -1.71837525 -5.38328321 -1.26412561 0 0 Z " fill="#060606" transform="translate(349,324)"/>
<path d="M0 0 C3.23729119 2.49541196 5.76300366 5.06410254 7 9 C7.6897785 14.91238713 6.92206692 18.47261264 3.47265625 23.36328125 C1.13217488 25.9645059 -0.53490492 26.54234593 -4 27 C-12.2793251 27.30614868 -12.2793251 27.30614868 -15.71875 24.6953125 C-19.38141212 20.41510851 -20.30039122 16.6141031 -20.21875 11.0625 C-19.77696084 6.89705934 -18.06208723 3.96251655 -15 1.1875 C-10.10589431 -1.71837525 -5.38328321 -1.26412561 0 0 Z " fill="#060606" transform="translate(290,324)"/>
<path d="M0 0 C4.62 0 9.24 0 14 0 C14 17.49 14 34.98 14 53 C9.38 53 4.76 53 0 53 C0 51.02 0 49.04 0 47 C2.31 47 4.62 47 7 47 C7 33.47 7 19.94 7 6 C4.69 6 2.38 6 0 6 C0 4.02 0 2.04 0 0 Z " fill="#020202" transform="translate(447,308)"/>
<path d="M0 0 C4.62 0 9.24 0 14 0 C14 1.98 14 3.96 14 6 C11.69 6 9.38 6 7 6 C7 19.53 7 33.06 7 47 C9.31 47 11.62 47 14 47 C14 48.98 14 50.96 14 53 C9.38 53 4.76 53 0 53 C0 35.51 0 18.02 0 0 Z " fill="#010101" transform="translate(239,308)"/>
<path d="M0 0 C2.31 0 4.62 0 7 0 C7.33 0.99 7.66 1.98 8 3 C8.680625 2.484375 9.36125 1.96875 10.0625 1.4375 C13.90525323 -0.44299626 15.91132242 -0.11509388 20 1 C22.19921875 2.35546875 22.19921875 2.35546875 24 5 C24.49839351 8.76004664 24.37486298 12.46569119 24.25 16.25 C24.23195313 17.28125 24.21390625 18.3125 24.1953125 19.375 C24.14822712 21.91761064 24.0824805 24.45833162 24 27 C21.69 27 19.38 27 17 27 C16.505 17.1 16.505 17.1 16 7 C11.361186 5.46274824 11.361186 5.46274824 9.21948242 7.1730957 C7.76696119 9.349115 7.58053225 10.62899054 7.48828125 13.23046875 C7.45283203 14.03291016 7.41738281 14.83535156 7.38085938 15.66210938 C7.34702148 16.91217773 7.34702148 16.91217773 7.3125 18.1875 C7.27833984 19.03248047 7.24417969 19.87746094 7.20898438 20.74804688 C7.12658529 22.83156649 7.06161355 24.91576216 7 27 C4.69 27 2.38 27 0 27 C0 18.09 0 9.18 0 0 Z " fill="#0F0F0F" transform="translate(418,323)"/>
<path d="M0 0 C1.68161626 1.89181829 2.15693498 3.20027859 2.5 5.6875 C0.19 5.6875 -2.12 5.6875 -4.5 5.6875 C-4.83 5.0275 -5.16 4.3675 -5.5 3.6875 C-7.81 3.6875 -10.12 3.6875 -12.5 3.6875 C-12.5 4.6775 -12.5 5.6675 -12.5 6.6875 C-11.59636719 6.94144531 -10.69273437 7.19539063 -9.76171875 7.45703125 C-8.58222656 7.80121094 -7.40273438 8.14539063 -6.1875 8.5 C-4.42986328 9.00466797 -4.42986328 9.00466797 -2.63671875 9.51953125 C1.7747718 11.16216596 1.7747718 11.16216596 3.5 13.6875 C3.42857823 17.61569709 3.08982358 19.91462772 0.6875 23.0625 C-3.47653825 26.15578556 -7.39038746 25.95642698 -12.5 25.6875 C-15.89164268 24.68542375 -18.38412486 23.58290809 -20.5 20.6875 C-20.5 19.3675 -20.5 18.0475 -20.5 16.6875 C-18.19 16.6875 -15.88 16.6875 -13.5 16.6875 C-13.17 17.6775 -12.84 18.6675 -12.5 19.6875 C-9.86 19.6875 -7.22 19.6875 -4.5 19.6875 C-4.5 18.6975 -4.5 17.7075 -4.5 16.6875 C-5.41523438 16.42195313 -6.33046875 16.15640625 -7.2734375 15.8828125 C-8.46195312 15.52960938 -9.65046875 15.17640625 -10.875 14.8125 C-12.05835938 14.46445312 -13.24171875 14.11640625 -14.4609375 13.7578125 C-17.5 12.6875 -17.5 12.6875 -19.5 10.6875 C-20.1822335 3.63775381 -20.1822335 3.63775381 -17.75 0.25 C-12.48168393 -3.40855282 -5.56066809 -2.91935075 0 0 Z " fill="#040404" transform="translate(379.5,325.3125)"/>
<path d="M0 0 C2.64 0 5.28 0 8 0 C8.67099984 2.60311992 9.33695338 5.20735398 10 7.8125 C10.19078125 8.55048828 10.3815625 9.28847656 10.578125 10.04882812 C11.35262914 13.10535341 12 15.83373478 12 19 C12.66 19 13.32 19 14 19 C14.10957031 18.38253906 14.21914063 17.76507813 14.33203125 17.12890625 C15.4377266 11.22287499 16.95361435 5.64802441 19 0 C21.31 0 23.62 0 26 0 C23.03 8.91 20.06 17.82 17 27 C14.36 27 11.72 27 9 27 C6.03 18.09 3.06 9.18 0 0 Z " fill="#030303" transform="translate(300,323)"/>
<path d="M0 0 C1.98 0 3.96 0 6 0 C6 11.88 6 23.76 6 36 C4.02 36 2.04 36 0 36 C0 24.12 0 12.24 0 0 Z " fill="#000000" transform="translate(258,314)"/>
<path d="M0 0 C2.41389574 2.64749856 2.93296825 4.46374599 3.375 8 C2.93296825 11.53625401 2.41389574 13.35250144 0 16 C-5.83957219 16.8342246 -5.83957219 16.8342246 -8.6953125 14.78125 C-10.42149149 12.42455053 -10.40088378 10.89898332 -10.375 8 C-10.38273437 7.13375 -10.39046875 6.2675 -10.3984375 5.375 C-9.41320369 -0.49776626 -5.28103296 -0.75443328 0 0 Z " fill="#F3F3F3" transform="translate(404,329)"/>
<path d="M0 0 C2.41389574 2.64749856 2.93296825 4.46374599 3.375 8 C2.93296825 11.53625401 2.41389574 13.35250144 0 16 C-5.83957219 16.8342246 -5.83957219 16.8342246 -8.6953125 14.78125 C-10.42149149 12.42455053 -10.40088378 10.89898332 -10.375 8 C-10.38273437 7.13375 -10.39046875 6.2675 -10.3984375 5.375 C-9.41320369 -0.49776626 -5.28103296 -0.75443328 0 0 Z " fill="#F3F3F3" transform="translate(346,329)"/>
<path d="M0 0 C2.41389574 2.64749856 2.93296825 4.46374599 3.375 8 C2.93296825 11.53625401 2.41389574 13.35250144 0 16 C-5.83957219 16.8342246 -5.83957219 16.8342246 -8.6953125 14.78125 C-10.42149149 12.42455053 -10.40088378 10.89898332 -10.375 8 C-10.38273437 7.13375 -10.39046875 6.2675 -10.3984375 5.375 C-9.41320369 -0.49776626 -5.28103296 -0.75443328 0 0 Z " fill="#F3F3F3" transform="translate(287,329)"/>
<path d="M0 0 C1.67542976 0.28604898 3.34385343 0.61781233 5 1 C5.625 3.3125 5.625 3.3125 6 6 C5.01 7.485 5.01 7.485 4 9 C1.5 9.3125 1.5 9.3125 -1 9 C-1.66 8.34 -2.32 7.68 -3 7 C-3.66 7.66 -4.32 8.32 -5 9 C-7.5 9.3125 -7.5 9.3125 -10 9 C-12 6 -12 6 -11.625 3.3125 C-11.41875 2.549375 -11.2125 1.78625 -11 1 C-10.34 1.33 -9.68 1.66 -9 2 C-9 3.65 -9 5.3 -9 7 C-8.01 7 -7.02 7 -6 7 C-5.67 6.34 -5.34 5.68 -5 5 C-4.34 5 -3.68 5 -3 5 C-2.690625 4.360625 -2.38125 3.72125 -2.0625 3.0625 C-1 1 -1 1 0 0 Z " fill="#8E8E8E" transform="translate(377,364)"/>
<path d="M0 0 C0.66 0 1.32 0 2 0 C2.33 0.66 2.66 1.32 3 2 C3.66 1.34 4.32 0.68 5 0 C7.625 0.375 7.625 0.375 10 1 C10.625 3.3125 10.625 3.3125 11 6 C10.01 7.485 10.01 7.485 9 9 C6.375 9.1875 6.375 9.1875 4 9 C3.67 8.34 3.34 7.68 3 7 C1.68 7 0.36 7 -1 7 C-1 7.66 -1 8.32 -1 9 C-1.66 9 -2.32 9 -3 9 C-3.33 7.35 -3.66 5.7 -4 4 C-3.67 4.66 -3.34 5.32 -3 6 C-2.34 6 -1.68 6 -1 6 C-0.67 4.02 -0.34 2.04 0 0 Z " fill="#AAAAAA" transform="translate(322,364)"/>
<path d="M0 0 C2.5625 0.1875 2.5625 0.1875 4.5625 2.1875 C3.99431818 7.75568182 3.99431818 7.75568182 2.5625 9.1875 C0.125 9.4375 0.125 9.4375 -2.4375 9.1875 C-4.4375 6.1875 -4.4375 6.1875 -4.125 3.5625 C-3.16420807 0.24340062 -3.16420807 0.24340062 0 0 Z " fill="#585858" transform="translate(346.4375,363.8125)"/>
<path d="M0 0 C3.125 0.375 3.125 0.375 6 1 C6.04241723 3.33294775 6.04092937 5.66702567 6 8 C5 9 5 9 2.5625 9.1875 C0 9 0 9 -2 7 C-2.25 4.5 -2.25 4.5 -2 2 C-1.34 1.34 -0.68 0.68 0 0 Z " fill="#9C9C9C" transform="translate(309,364)"/>
<path d="M0 0 C1.81242052 -0.02687279 3.62495233 -0.04633715 5.4375 -0.0625 C6.44683594 -0.07410156 7.45617187 -0.08570313 8.49609375 -0.09765625 C11 0 11 0 12 1 C12.14115161 3.67058851 12.04247107 6.32432238 12 9 C11.67 9 11.34 9 11 9 C11 6.69 11 4.38 11 2 C7.77595022 3.66954819 7.77595022 3.66954819 7.3125 6.625 C7.209375 7.40875 7.10625 8.1925 7 9 C6.67 9 6.34 9 6 9 C5.67 6.69 5.34 4.38 5 2 C4.34 2 3.68 2 3 2 C2.67 4.31 2.34 6.62 2 9 C1.34 9 0.68 9 0 9 C0 6.03 0 3.06 0 0 Z " fill="#535353" transform="translate(384,364)"/>
<path d="M0 0 C4.75 0.75 4.75 0.75 7 3 C6.67 3.66 6.34 4.32 6 5 C5.34 5 4.68 5 4 5 C3.67 5.99 3.34 6.98 3 8 C1.68 7.67 0.36 7.34 -1 7 C-0.67 4.69 -0.34 2.38 0 0 Z " fill="#D4D4D4" transform="translate(368,364)"/>
<path d="M0 0 C2.00720923 0.28674418 4.0085944 0.61866701 6 1 C6 1.66 6 2.32 6 3 C4.68 2.67 3.36 2.34 2 2 C2 2.66 2 3.32 2 4 C3.32 4.33 4.64 4.66 6 5 C5.67 6.32 5.34 7.64 5 9 C3.35 9 1.7 9 0 9 C0 8.01 0 7.02 0 6 C1.98 6.495 1.98 6.495 4 7 C3.360625 6.7525 2.72125 6.505 2.0625 6.25 C0 5 0 5 -0.8125 2.9375 C-0.874375 2.298125 -0.93625 1.65875 -1 1 C-0.67 0.67 -0.34 0.34 0 0 Z " fill="#636363" transform="translate(335,364)"/>
<path d="M0 0 C0.66 0 1.32 0 2 0 C2.33 0.66 2.66 1.32 3 2 C3.33 2 3.66 2 4 2 C4 3.65 4 5.3 4 7 C2.35 7 0.7 7 -1 7 C-1 7.66 -1 8.32 -1 9 C-1.66 9 -2.32 9 -3 9 C-3.33 7.35 -3.66 5.7 -4 4 C-3.67 4.66 -3.34 5.32 -3 6 C-2.34 6 -1.68 6 -1 6 C-0.67 4.02 -0.34 2.04 0 0 Z " fill="#6A6A6A" transform="translate(322,364)"/>
<path d="M0 0 C2.0625 0.4375 2.0625 0.4375 4 1 C4 2.65 4 4.3 4 6 C2.0625 6.5625 2.0625 6.5625 0 7 C-1 6 -1 6 -1.125 3.5 C-1 1 -1 1 0 0 Z " fill="#F8F8F8" transform="translate(345,365)"/>
<path d="M0 0 C0.99 0 1.98 0 3 0 C2.67 2.97 2.34 5.94 2 9 C1.34 9 0.68 9 0 9 C0 6.03 0 3.06 0 0 Z " fill="#777777" transform="translate(384,364)"/>
</svg>
