<?xml version="1.0" encoding="UTF-8"?>
<svg version="1.1" xmlns="http://www.w3.org/2000/svg" width="700" height="700">
<path d="M0 0 C231 0 462 0 700 0 C700 231 700 462 700 700 C469 700 238 700 0 700 C0 469 0 238 0 0 Z " fill="#FEFEFE" transform="translate(0,0)"/>
<path d="M0 0 C2.71240196 3.53342286 2.41282157 6.90852184 2.33862305 11.18041992 C2.33856766 12.04218842 2.33851227 12.90395691 2.3384552 13.7918396 C2.33133747 16.59383543 2.29352854 19.39435263 2.25268555 22.19604492 C2.23697669 24.12556573 2.22176001 26.0550906 2.20703125 27.98461914 C2.06869881 41.54636168 1.46630057 54.97144092 -0.12231445 68.44604492 C-0.23478516 69.46843262 -0.34725586 70.49082031 -0.46313477 71.54418945 C-1.72566694 83.00610342 -3.11083404 94.29187231 -6.12231445 105.44604492 C-6.40848633 106.60491211 -6.6946582 107.7637793 -6.98950195 108.95776367 C-17.49184392 150.48975235 -17.49184392 150.48975235 -33.49731445 160.38354492 C-38.10765281 162.70029787 -40.99999756 163.34041771 -46.12231445 162.44604492 C-49.17877563 160.82964719 -51.60160882 158.79870351 -54.12231445 156.44604492 C-54.70883789 155.91237305 -55.29536133 155.37870117 -55.8996582 154.82885742 C-67.02304697 143.47846072 -72.71716577 125.40166224 -76.18481445 110.32104492 C-76.44302979 109.20995361 -76.70124512 108.0988623 -76.96728516 106.95410156 C-77.69609445 103.78701851 -78.41033844 100.61694556 -79.12231445 97.44604492 C-79.37609863 96.35960693 -79.37609863 96.35960693 -79.63500977 95.2512207 C-83.1042996 80.30508152 -83.87256154 64.70720797 -85.12231445 49.44604492 C-85.22020264 48.27009766 -85.31809082 47.09415039 -85.41894531 45.88256836 C-86.09313797 37.23581879 -86.36964573 28.61782934 -86.43481445 19.94604492 C-86.46381836 18.62862305 -86.49282227 17.31120117 -86.52270508 15.95385742 C-86.53108398 14.6828418 -86.53946289 13.41182617 -86.5480957 12.10229492 C-86.56267822 10.96598633 -86.57726074 9.82967773 -86.59228516 8.65893555 C-85.8892745 3.85289905 -83.64738199 0.67412562 -79.89575195 -2.34692383 C-57.77850546 -15.20662578 -21.04327194 -15.40784838 0 0 Z " fill="#010101" transform="translate(392.122314453125,348.553955078125)"/>
<path d="M0 0 C1.12039673 0.01135986 1.12039673 0.01135986 2.26342773 0.02294922 C12.76809504 0.33495777 21.15570438 4.61118748 28.375 12.21484375 C35.29668361 20.67660196 37.51771726 29.96718958 37.19921875 40.78515625 C36.3854992 46.59300187 34.08391705 50.73244119 30.6875 55.4375 C30.18089844 56.17742187 29.67429687 56.91734375 29.15234375 57.6796875 C23.99355114 64.39752554 16.59680584 67.80106472 8.6875 70.4375 C-3.50209687 71.48535436 -12.26753006 70.38049471 -22.390625 62.90234375 C-29.41570704 56.68667334 -33.77502078 47.16632642 -34.515625 37.89453125 C-34.71379978 26.7141706 -32.14318137 18.58564143 -24.3125 10.4375 C-17.00478918 3.78825782 -10.00530494 -0.14249671 0 0 Z " fill="#030303" transform="translate(349.3125,261.5625)"/>
<path d="M0 0 C8.76128087 -0.24257618 17.72072466 0.90301358 26.1484375 3.30859375 C30.76688569 4.36192404 34.23673217 3.69562832 38.796875 2.63671875 C56.42182394 -1.44484837 73.86033957 -1.49508903 89.7109375 8.12109375 C92.5390625 10.14453125 92.5390625 10.14453125 94.7109375 12.12109375 C95.0234375 14.87109375 95.0234375 14.87109375 94.7109375 17.12109375 C92.0709375 17.45109375 89.4309375 17.78109375 86.7109375 18.12109375 C87.37480469 18.5078125 88.03867187 18.89453125 88.72265625 19.29296875 C101.05846712 26.56839589 108.28715497 34.05858656 112.25927734 48.05297852 C113.79512956 54.14148709 113.94910794 59.92875078 113.8359375 66.18359375 C113.82691406 67.14458984 113.81789063 68.10558594 113.80859375 69.09570312 C113.78528958 71.4377718 113.75257808 73.77929167 113.7109375 76.12109375 C111.3984375 76.74609375 111.3984375 76.74609375 108.7109375 77.12109375 C107.7209375 76.46109375 106.7309375 75.80109375 105.7109375 75.12109375 C105.67355469 76.31605469 105.63617188 77.51101563 105.59765625 78.7421875 C105.27862639 87.01349304 104.92940773 94.40333351 101.7109375 102.12109375 C100.99774847 104.44330682 100.35861304 106.77949757 99.7109375 109.12109375 C99.0509375 109.12109375 98.3909375 109.12109375 97.7109375 109.12109375 C97.48019531 109.99378906 97.24945313 110.86648438 97.01171875 111.765625 C95.5267409 115.59624355 93.68853867 117.80933957 90.8984375 120.80859375 C90.04636719 121.74058594 89.19429687 122.67257812 88.31640625 123.6328125 C85.0611151 126.74168876 82.46670457 129.00404261 77.8984375 129.30859375 C77.1765625 129.24671875 76.4546875 129.18484375 75.7109375 129.12109375 C75.48516348 123.70251715 76.24423637 119.34621654 77.7109375 114.12109375 C79.2109375 115.43359375 79.2109375 115.43359375 80.7109375 117.12109375 C80.7109375 118.11109375 80.7109375 119.10109375 80.7109375 120.12109375 C87.12492244 115.37474489 90.44802836 110.37095814 93.7109375 103.12109375 C94.12730469 102.19941406 94.54367187 101.27773438 94.97265625 100.328125 C98.99783092 89.63669613 98.08570494 78.36844123 97.7109375 67.12109375 C100.0209375 67.12109375 102.3309375 67.12109375 104.7109375 67.12109375 C104.7109375 67.78109375 104.7109375 68.44109375 104.7109375 69.12109375 C106.0309375 69.12109375 107.3509375 69.12109375 108.7109375 69.12109375 C107.1162911 54.54604741 107.1162911 54.54604741 101.7109375 41.12109375 C101.27910156 40.35667969 100.84726562 39.59226563 100.40234375 38.8046875 C97.0065932 33.21872386 93.19021389 29.62740174 87.7109375 26.12109375 C87.14503906 25.73050781 86.57914063 25.33992188 85.99609375 24.9375 C81.23172301 21.87709244 76.25527957 20.96892071 70.7109375 20.12109375 C70.0859375 17.74609375 70.0859375 17.74609375 69.7109375 15.12109375 C72.0238857 12.80814555 73.18998625 12.625284 76.3359375 11.99609375 C77.15320313 11.82851562 77.97046875 11.6609375 78.8125 11.48828125 C79.43898438 11.36710938 80.06546875 11.2459375 80.7109375 11.12109375 C76.37175092 6.78190717 68.8552899 6.86364633 62.97631836 6.79321289 C62.20811768 6.79828857 61.43991699 6.80336426 60.6484375 6.80859375 C59.83060791 6.80915771 59.01277832 6.80972168 58.17016602 6.81030273 C51.9704327 6.9021373 46.19309568 7.81614114 40.1472168 9.11279297 C33.71202036 10.44669009 28.46623012 9.87553035 22.10546875 8.59765625 C15.7031875 7.37901513 9.52621747 6.90715353 3.0234375 6.87109375 C2.23976807 6.86198975 1.45609863 6.85288574 0.64868164 6.84350586 C-9.09230363 6.79536139 -9.09230363 6.79536139 -17.2890625 11.12109375 C-12.3390625 12.60609375 -12.3390625 12.60609375 -7.2890625 14.12109375 C-6.7940625 16.59609375 -6.7940625 16.59609375 -6.2890625 19.12109375 C-12.2890625 21.12109375 -12.2890625 21.12109375 -14.375 21.7109375 C-24.46499281 24.70253186 -32.38689683 30.40069733 -37.6953125 39.54296875 C-42.61503244 48.98196631 -43.73288097 57.56828111 -44.2890625 68.12109375 C-42.8040625 67.62609375 -42.8040625 67.62609375 -41.2890625 67.12109375 C-38.95606425 67.08155141 -36.62198061 67.07707643 -34.2890625 67.12109375 C-34.30477295 67.72469727 -34.3204834 68.32830078 -34.33666992 68.95019531 C-34.75587531 87.50843562 -33.87568577 103.2595599 -20.83984375 117.625 C-19.34207321 119.21923503 -19.34207321 119.21923503 -17.2890625 120.12109375 C-17.1859375 119.33734375 -17.0828125 118.55359375 -16.9765625 117.74609375 C-16.2890625 115.12109375 -16.2890625 115.12109375 -13.2890625 113.12109375 C-12.16044075 118.48204708 -12.19218029 123.67416061 -12.2890625 129.12109375 C-15.8940891 129.4512052 -17.76429761 129.45947111 -20.8515625 127.46875 C-26.12770214 122.52236909 -30.9231271 117.59299394 -34.2890625 111.12109375 C-34.2890625 110.46109375 -34.2890625 109.80109375 -34.2890625 109.12109375 C-34.9490625 109.12109375 -35.6090625 109.12109375 -36.2890625 109.12109375 C-36.93949969 107.39365359 -37.58421094 105.66405685 -38.2265625 103.93359375 C-38.58621094 102.97066406 -38.94585937 102.00773437 -39.31640625 101.015625 C-41.27654479 95.18244165 -41.41413521 89.9070262 -41.3515625 83.80859375 C-41.34705078 82.97263672 -41.34253906 82.13667969 -41.33789062 81.27539062 C-41.32616798 79.22392726 -41.30823453 77.17250102 -41.2890625 75.12109375 C-42.0315625 75.47171875 -42.7740625 75.82234375 -43.5390625 76.18359375 C-46.50029125 77.19310355 -47.40968811 77.00090259 -50.2890625 76.12109375 C-50.7929003 57.73488975 -50.17412666 41.18468356 -37.14453125 26.7578125 C-33.25344461 23.3254645 -28.75362962 20.73469265 -24.2890625 18.12109375 C-26.5990625 17.79109375 -28.9090625 17.46109375 -31.2890625 17.12109375 C-31.52734375 14.84375 -31.52734375 14.84375 -31.2890625 12.12109375 C-25.32771396 5.0410724 -15.68439936 1.54019415 -6.7265625 0.37109375 C-4.4851614 0.20873077 -2.24403965 0.118712 0 0 Z " fill="#131313" transform="translate(318.2890625,215.87890625)"/>
<path d="M0 0 C6.97615695 1.85856339 14.59448045 0.60310233 21.6171875 -0.59375 C32.79093554 -2.4106196 41.79272191 0.40062475 51.5 5.9375 C53.5 7.9375 53.5 7.9375 53.5 10.9375 C51.52 11.2675 49.54 11.5975 47.5 11.9375 C48.24443359 12.3396875 48.24443359 12.3396875 49.00390625 12.75 C57.61703508 17.71848419 63.48709712 24.37811133 66.5 33.9375 C66.93269103 37.48356941 66.88601022 40.93496286 66.75 44.5 C66.73195313 45.41330078 66.71390625 46.32660156 66.6953125 47.26757812 C66.64872701 49.49203514 66.58335485 51.71416967 66.5 53.9375 C64.33125748 53.43146008 62.50032373 52.93766187 60.5 51.9375 C60.60441406 53.20980469 60.60441406 53.20980469 60.7109375 54.5078125 C61.26139934 66.43448573 58.2554514 76.01126224 50.3125 85.1875 C48.10283316 87.50612477 46.18393288 89.14821142 43.5 90.9375 C42.18 90.9375 40.86 90.9375 39.5 90.9375 C39.41840426 86.77611737 39.51751476 82.9902516 40.5 78.9375 C42 80.3125 42 80.3125 43.5 81.9375 C43.5 82.5975 43.5 83.2575 43.5 83.9375 C49.1291609 79.11250495 52.17206791 72.92129628 54.5 65.9375 C54.5806622 64.45626453 54.60761193 62.97167796 54.59765625 61.48828125 C54.59443359 60.64072266 54.59121094 59.79316406 54.58789062 58.91992188 C54.57951172 58.03884766 54.57113281 57.15777344 54.5625 56.25 C54.55798828 55.35732422 54.55347656 54.46464844 54.54882812 53.54492188 C54.53704983 51.34238013 54.52060164 49.13997401 54.5 46.9375 C56.81 46.9375 59.12 46.9375 61.5 46.9375 C62.22102387 37.52413283 60.29504117 30.12997463 54.4375 22.625 C49.43952124 17.28084089 42.55746225 14.50766139 35.5 12.9375 C36.375 9.0625 36.375 9.0625 37.5 7.9375 C39.49958364 7.89669217 41.50045254 7.89495644 43.5 7.9375 C43.5 7.2775 43.5 6.6175 43.5 5.9375 C37.77322944 4.71241835 32.13749387 4.78964195 26.3125 4.8125 C25.31541016 4.80863281 24.31832031 4.80476562 23.29101562 4.80078125 C22.33517578 4.80207031 21.37933594 4.80335938 20.39453125 4.8046875 C19.52675049 4.80581543 18.65896973 4.80694336 17.76489258 4.80810547 C15.33250664 4.84799645 15.33250664 4.84799645 12.5 5.9375 C11.04401978 6.03020286 9.58391995 6.06747925 8.125 6.0625 C7.37476563 6.06507813 6.62453125 6.06765625 5.8515625 6.0703125 C3.5 5.9375 3.5 5.9375 1.33203125 5.4375 C-2.91839407 4.68708008 -7.13039212 4.79367797 -11.4375 4.8125 C-12.31857422 4.80863281 -13.19964844 4.80476562 -14.10742188 4.80078125 C-18.68542071 4.80763968 -22.99611775 5.00259199 -27.5 5.9375 C-27.5 6.5975 -27.5 7.2575 -27.5 7.9375 C-26.38625 7.89625 -25.2725 7.855 -24.125 7.8125 C-20.5 7.9375 -20.5 7.9375 -18.5 9.9375 C-18.5 10.9275 -18.5 11.9175 -18.5 12.9375 C-19.44359375 13.15792969 -19.44359375 13.15792969 -20.40625 13.3828125 C-30.08889783 15.92013286 -36.06715341 20.21870707 -41.3125 28.78515625 C-44.66690193 34.86500975 -44.74158066 40.14639929 -44.5 46.9375 C-42.52 46.9375 -40.54 46.9375 -38.5 46.9375 C-38.48582031 48.16984375 -38.47164063 49.4021875 -38.45703125 50.671875 C-38.16161289 62.99468462 -36.92710431 73.28249426 -28.5 82.9375 C-27.84 83.2675 -27.18 83.5975 -26.5 83.9375 C-26.17 82.6175 -25.84 81.2975 -25.5 79.9375 C-24.84 79.9375 -24.18 79.9375 -23.5 79.9375 C-23.17 83.5675 -22.84 87.1975 -22.5 90.9375 C-26.53779974 90.83901708 -28.99188453 89.90238678 -31.9375 87.25 C-40.18217196 78.17718019 -43.2779384 69.27068573 -42.85717773 57.27197266 C-42.76339158 55.49230315 -42.63553221 53.71447788 -42.5 51.9375 C-43.3971875 52.4325 -43.3971875 52.4325 -44.3125 52.9375 C-46.5 53.9375 -46.5 53.9375 -49.5 53.9375 C-50.21096584 40.61347346 -50.46491467 30.23668951 -41.4609375 19.5078125 C-38.37853379 16.26378463 -35.60466244 13.78003736 -31.5 11.9375 C-33.975 11.4425 -33.975 11.4425 -36.5 10.9375 C-36.13530692 8.26308412 -35.73653696 7.15385109 -33.71484375 5.3046875 C-23.50955774 -1.38213798 -11.97327246 -3.28985243 0 0 Z " fill="#1A1A1A" transform="translate(341.5,243.0625)"/>
<path d="M0 0 C0 0.66 0 1.32 0 2 C-7.92 3.485 -7.92 3.485 -16 5 C-16 5.66 -16 6.32 -16 7 C-14.88625 6.95875 -13.7725 6.9175 -12.625 6.875 C-9 7 -9 7 -7 9 C-7 9.99 -7 10.98 -7 12 C-7.94359375 12.22042969 -7.94359375 12.22042969 -8.90625 12.4453125 C-18.58889783 14.98263286 -24.56715341 19.28120707 -29.8125 27.84765625 C-33.16690193 33.92750975 -33.24158066 39.20889929 -33 46 C-31.02 46 -29.04 46 -27 46 C-26.98582031 47.23234375 -26.97164063 48.4646875 -26.95703125 49.734375 C-26.66161289 62.05718462 -25.42710431 72.34499426 -17 82 C-16.34 82.33 -15.68 82.66 -15 83 C-14.67 81.68 -14.34 80.36 -14 79 C-13.34 79 -12.68 79 -12 79 C-11.67 82.63 -11.34 86.26 -11 90 C-15.03779974 89.90151708 -17.49188453 88.96488678 -20.4375 86.3125 C-28.68217196 77.23968019 -31.7779384 68.33318573 -31.35717773 56.33447266 C-31.26339158 54.55480315 -31.13553221 52.77697788 -31 51 C-31.8971875 51.495 -31.8971875 51.495 -32.8125 52 C-35 53 -35 53 -38 53 C-38.71096584 39.67597346 -38.96491467 29.29918951 -29.9609375 18.5703125 C-26.87853379 15.32628463 -24.10466244 12.84253736 -20 11 C-22.475 10.505 -22.475 10.505 -25 10 C-24.60968637 7.62263514 -24.28887585 6.29524226 -22.58203125 4.55078125 C-15.3328215 -0.52206531 -8.61997773 -0.13804235 0 0 Z " fill="#171717" transform="translate(330,244)"/>
<path d="M0 0 C6.972993 1.85772046 14.59500614 0.60874738 21.61328125 -0.59765625 C27.90192555 -1.61030668 34.27075492 -1.37392002 40.5 -0.0625 C40.5 0.2675 40.5 0.5975 40.5 0.9375 C30.105 1.4325 30.105 1.4325 19.5 1.9375 C24.45 2.2675 29.4 2.5975 34.5 2.9375 C34.5 3.2675 34.5 3.5975 34.5 3.9375 C33.66021606 3.97508423 33.66021606 3.97508423 32.8034668 4.01342773 C30.26458695 4.12953745 27.72606447 4.2521958 25.1875 4.375 C23.86588867 4.43397461 23.86588867 4.43397461 22.51757812 4.49414062 C21.24624023 4.55698242 21.24624023 4.55698242 19.94921875 4.62109375 C19.16893311 4.65775146 18.38864746 4.69440918 17.5847168 4.73217773 C15.30670899 4.87875263 15.30670899 4.87875263 12.5 5.9375 C11.04401978 6.03020286 9.58391995 6.06747925 8.125 6.0625 C7.37476563 6.06507813 6.62453125 6.06765625 5.8515625 6.0703125 C3.5 5.9375 3.5 5.9375 1.26171875 5.46484375 C-2.58057882 4.731166 -6.41081995 4.57449915 -10.3125 4.375 C-11.10076172 4.33181641 -11.88902344 4.28863281 -12.70117188 4.24414062 C-14.63394215 4.13871679 -16.56695026 4.03766906 -18.5 3.9375 C-18.5 3.6075 -18.5 3.2775 -18.5 2.9375 C-16.19 2.9375 -13.88 2.9375 -11.5 2.9375 C-11.5 2.2775 -11.5 1.6175 -11.5 0.9375 C-16.45 1.2675 -21.4 1.5975 -26.5 1.9375 C-19.34822398 -2.83035068 -8.06113309 -2.24257086 0 0 Z " fill="#3A3A3A" transform="translate(341.5,243.0625)"/>
<path d="M0 0 C0 0.66 0 1.32 0 2 C-7.92 3.485 -7.92 3.485 -16 5 C-15.67 5.99 -15.34 6.98 -15 8 C-15.99 9.485 -15.99 9.485 -17 11 C-17 10.34 -17 9.68 -17 9 C-19.64 9.33 -22.28 9.66 -25 10 C-24.60968637 7.62263514 -24.28887585 6.29524226 -22.58203125 4.55078125 C-15.3328215 -0.52206531 -8.61997773 -0.13804235 0 0 Z " fill="#121212" transform="translate(330,244)"/>
<path d="M0 0 C0.66 0.33 1.32 0.66 2 1 C-1.96 4.96 -5.92 8.92 -10 13 C-10 8.41771462 -7.08388033 6.1816619 -4 3 C-1.625 1.0625 -1.625 1.0625 0 0 Z " fill="#2D2D2D" transform="translate(287,238)"/>
<path d="M0 0 C2.97 0 5.94 0 9 0 C9 0.66 9 1.32 9 2 C5.7 2.33 2.4 2.66 -1 3 C-0.67 2.01 -0.34 1.02 0 0 Z " fill="#050505" transform="translate(321,244)"/>
</svg>
