<?xml version="1.0" encoding="UTF-8"?>
<svg version="1.1" xmlns="http://www.w3.org/2000/svg" width="700" height="700">
<path d="M0 0 C231 0 462 0 700 0 C700 231 700 462 700 700 C469 700 238 700 0 700 C0 469 0 238 0 0 Z " fill="#FEFEFE" transform="translate(0,0)"/>
<path d="M0 0 C1.11713379 0.00628418 1.11713379 0.00628418 2.25683594 0.01269531 C9.34883036 0.15755569 15.22159054 1.34963829 21.42578125 4.86328125 C24.28545816 7.96002982 24.25834093 9.61796191 24.22924805 13.70825195 C24.17764526 14.96641724 24.17764526 14.96641724 24.125 16.25 C24.09563354 17.56713989 24.09563354 17.56713989 24.06567383 18.91088867 C22.50880143 71.63416214 22.50880143 71.63416214 6.6875 87.3125 C3.35537704 88.97856148 0.24811195 89.15903388 -3.3125 88.3125 C-14.0747012 80.87557182 -17.27277834 64.55050808 -19.5 52.4453125 C-21.00222402 43.44935522 -21.75051639 34.4088714 -22.3125 25.3125 C-22.37518066 24.47750977 -22.43786133 23.64251953 -22.50244141 22.78222656 C-23.39886902 10.21203874 -23.39886902 10.21203874 -20.9921875 6.00390625 C-15.27343081 0.65699697 -7.50324867 -0.05769119 0 0 Z " fill="#030303" transform="translate(349.3125,315.6875)"/>
<path d="M0 0 C1.01433609 -0.0038269 2.02867218 -0.00765381 3.07374573 -0.01159668 C5.21103919 -0.01430899 7.34836624 -0.00699569 9.4855957 0.00976562 C12.74050656 0.03116192 15.99320465 0.0099514 19.24804688 -0.015625 C21.33203608 -0.01298117 23.41602392 -0.00785505 25.5 0 C26.46481796 -0.00809692 27.42963593 -0.01619385 28.4236908 -0.02453613 C34.22265357 0.0551314 39.73115033 0.63482904 44.31640625 4.53125 C45.02806091 6.6697998 45.02806091 6.6697998 45.31640625 8.53125 C44.32640625 8.86125 43.33640625 9.19125 42.31640625 9.53125 C43.67765625 10.3665625 43.67765625 10.3665625 45.06640625 11.21875 C50.13929454 14.82830513 53.90891232 19.35912847 55.31640625 25.53125 C55.55750442 30.20958054 55.49165546 34.85144706 55.31640625 39.53125 C54.32640625 39.53125 53.33640625 39.53125 52.31640625 39.53125 C52.31640625 38.87125 52.31640625 38.21125 52.31640625 37.53125 C51.65640625 37.53125 50.99640625 37.53125 50.31640625 37.53125 C50.37441406 38.35367188 50.43242187 39.17609375 50.4921875 40.0234375 C50.81667733 48.05224308 50.09706595 53.93108549 45.31640625 60.53125 C43.17080275 62.82879538 40.99462058 64.87170158 38.31640625 66.53125 C37.65640625 66.53125 36.99640625 66.53125 36.31640625 66.53125 C35.82140625 62.07625 35.82140625 62.07625 35.31640625 57.53125 C34.69765625 58.02625 34.07890625 58.52125 33.44140625 59.03125 C31.31640625 60.53125 31.31640625 60.53125 29.31640625 60.53125 C29.31640625 58.88125 29.31640625 57.23125 29.31640625 55.53125 C29.91453125 55.469375 30.51265625 55.4075 31.12890625 55.34375 C33.45035028 54.67394529 33.45035028 54.67394529 35.00390625 52.65625 C36.93092991 48.06809843 37.06584656 43.46468387 37.31640625 38.53125 C38.63640625 38.53125 39.95640625 38.53125 41.31640625 38.53125 C40.35970074 32.10561595 39.12643128 28.0206067 34.31640625 23.53125 C32.00700058 22.26634731 29.81428541 21.41285441 27.31640625 20.53125 C27.97640625 19.21125 28.63640625 17.89125 29.31640625 16.53125 C18.75640625 16.53125 8.19640625 16.53125 -2.68359375 16.53125 C-2.02359375 17.85125 -1.36359375 19.17125 -0.68359375 20.53125 C-1.73546875 20.9025 -2.78734375 21.27375 -3.87109375 21.65625 C-7.83121232 23.38779982 -10.59717398 25.71701386 -12.68359375 29.53125 C-13.61528295 32.50100931 -14.22556646 35.45494729 -14.68359375 38.53125 C-13.36359375 38.53125 -12.04359375 38.53125 -10.68359375 38.53125 C-10.64621094 39.26730469 -10.60882813 40.00335938 -10.5703125 40.76171875 C-10.09383381 48.10685617 -10.09383381 48.10685617 -6.68359375 54.53125 C-6.68359375 55.19125 -6.68359375 55.85125 -6.68359375 56.53125 C-5.36359375 55.87125 -4.04359375 55.21125 -2.68359375 54.53125 C-2.68359375 56.51125 -2.68359375 58.49125 -2.68359375 60.53125 C-7.43359375 58.65625 -7.43359375 58.65625 -9.68359375 57.53125 C-9.68359375 60.50125 -9.68359375 63.47125 -9.68359375 66.53125 C-16.10916027 64.83036475 -19.29676194 59.84263635 -22.55859375 54.40625 C-24.63649876 49.12035129 -23.9096599 43.09917548 -23.68359375 37.53125 C-24.34359375 37.53125 -25.00359375 37.53125 -25.68359375 37.53125 C-25.68359375 38.19125 -25.68359375 38.85125 -25.68359375 39.53125 C-26.67359375 39.53125 -27.66359375 39.53125 -28.68359375 39.53125 C-29.4894111 22.34047977 -29.4894111 22.34047977 -24.68359375 16.53125 C-22.14760801 14.01462293 -19.50433867 11.72211984 -16.68359375 9.53125 C-17.67359375 9.20125 -18.66359375 8.87125 -19.68359375 8.53125 C-18.48227872 4.79382545 -16.2226164 3.22367096 -12.85128784 1.37817383 C-8.6863121 -0.24909323 -4.4174047 -0.03699403 0 0 Z " fill="#F5F5F5" transform="translate(336.68359375,253.46875)"/>
<path d="M0 0 C4.00521387 2.88747977 7.46370991 6.48991981 9.6875 10.9375 C10.1947965 16.49281248 10.45010422 21.35580236 8 26.4375 C4.27185351 30.46792864 0.20359877 34.43705711 -5.42578125 35.23828125 C-11.21621889 35.26913616 -16.35582611 34.73732117 -20.78515625 30.54296875 C-25.35818571 25.27665203 -26.79858889 21.32786295 -26.6171875 14.46484375 C-25.92758523 8.74468131 -22.98650122 5.23194871 -18.75 1.5 C-12.90544005 -2.58572976 -6.57014886 -2.10740624 0 0 Z " fill="#040404" transform="translate(358.3125,278.0625)"/>
<path d="M0 0 C1.01433609 -0.0038269 2.02867218 -0.00765381 3.07374573 -0.01159668 C5.21103919 -0.01430899 7.34836624 -0.00699569 9.4855957 0.00976562 C12.74050656 0.03116192 15.99320465 0.0099514 19.24804688 -0.015625 C21.33203608 -0.01298117 23.41602392 -0.00785505 25.5 0 C26.46481796 -0.00809692 27.42963593 -0.01619385 28.4236908 -0.02453613 C34.22265357 0.0551314 39.73115033 0.63482904 44.31640625 4.53125 C45.02806091 6.6697998 45.02806091 6.6697998 45.31640625 8.53125 C44.32640625 8.86125 43.33640625 9.19125 42.31640625 9.53125 C43.67765625 10.3665625 43.67765625 10.3665625 45.06640625 11.21875 C50.13929454 14.82830513 53.90891232 19.35912847 55.31640625 25.53125 C55.55750442 30.20958054 55.49165546 34.85144706 55.31640625 39.53125 C54.32640625 39.53125 53.33640625 39.53125 52.31640625 39.53125 C52.31640625 38.87125 52.31640625 38.21125 52.31640625 37.53125 C51.65640625 37.53125 50.99640625 37.53125 50.31640625 37.53125 C50.37441406 38.35367188 50.43242187 39.17609375 50.4921875 40.0234375 C50.81667733 48.05224308 50.09706595 53.93108549 45.31640625 60.53125 C43.17080275 62.82879538 40.99462058 64.87170158 38.31640625 66.53125 C37.65640625 66.53125 36.99640625 66.53125 36.31640625 66.53125 C36.31640625 64.22125 36.31640625 61.91125 36.31640625 59.53125 C36.97640625 59.53125 37.63640625 59.53125 38.31640625 59.53125 C38.31640625 60.19125 38.31640625 60.85125 38.31640625 61.53125 C38.97640625 61.53125 39.63640625 61.53125 40.31640625 61.53125 C40.74759766 60.66113281 40.74759766 60.66113281 41.1875 59.7734375 C41.88369278 58.39068783 42.60093091 57.01803194 43.3515625 55.6640625 C46.84373281 48.83906045 47.1009997 42.10279016 47.31640625 34.53125 C48.96640625 34.53125 50.61640625 34.53125 52.31640625 34.53125 C51.43972313 27.41310648 50.37933095 20.91140056 45.31640625 15.53125 C41.5674392 12.96734411 37.72184877 11.54185263 33.31640625 10.53125 C33.31640625 6.53125 33.31640625 6.53125 35.31640625 4.53125 C19.47640625 4.53125 3.63640625 4.53125 -12.68359375 4.53125 C-12.68359375 5.19125 -12.68359375 5.85125 -12.68359375 6.53125 C-11.03359375 6.53125 -9.38359375 6.53125 -7.68359375 6.53125 C-7.35359375 7.52125 -7.02359375 8.51125 -6.68359375 9.53125 C-7.27527344 9.77359375 -7.86695313 10.0159375 -8.4765625 10.265625 C-15.26999114 13.14701398 -19.93456627 15.28909818 -22.93359375 22.34375 C-24.43424101 26.42817299 -25.30735899 30.20455023 -25.68359375 34.53125 C-24.03359375 34.53125 -22.38359375 34.53125 -20.68359375 34.53125 C-20.64492188 35.89056641 -20.64492188 35.89056641 -20.60546875 37.27734375 C-20.19401208 46.11431092 -19.4045657 53.29347639 -13.43359375 60.09375 C-12.85609375 60.568125 -12.27859375 61.0425 -11.68359375 61.53125 C-11.35359375 60.21125 -11.02359375 58.89125 -10.68359375 57.53125 C-10.35359375 57.53125 -10.02359375 57.53125 -9.68359375 57.53125 C-9.68359375 60.50125 -9.68359375 63.47125 -9.68359375 66.53125 C-16.10916027 64.83036475 -19.29676194 59.84263635 -22.55859375 54.40625 C-24.63649876 49.12035129 -23.9096599 43.09917548 -23.68359375 37.53125 C-24.34359375 37.53125 -25.00359375 37.53125 -25.68359375 37.53125 C-25.68359375 38.19125 -25.68359375 38.85125 -25.68359375 39.53125 C-26.67359375 39.53125 -27.66359375 39.53125 -28.68359375 39.53125 C-29.4894111 22.34047977 -29.4894111 22.34047977 -24.68359375 16.53125 C-22.14760801 14.01462293 -19.50433867 11.72211984 -16.68359375 9.53125 C-17.67359375 9.20125 -18.66359375 8.87125 -19.68359375 8.53125 C-18.48227872 4.79382545 -16.2226164 3.22367096 -12.85128784 1.37817383 C-8.6863121 -0.24909323 -4.4174047 -0.03699403 0 0 Z " fill="#1B1B1B" transform="translate(336.68359375,253.46875)"/>
<path d="M0 0 C3.23729119 2.49541196 5.76300366 5.06410254 7 9 C7.6897785 14.91238713 6.92206692 18.47261264 3.47265625 23.36328125 C1.13217488 25.9645059 -0.53490492 26.54234593 -4 27 C-12.2793251 27.30614868 -12.2793251 27.30614868 -15.71875 24.6953125 C-19.38141212 20.41510851 -20.30039122 16.6141031 -20.21875 11.0625 C-19.77696084 6.89705934 -18.06208723 3.96251655 -15 1.1875 C-10.10589431 -1.71837525 -5.38328321 -1.26412561 0 0 Z " fill="#060606" transform="translate(407,420)"/>
<path d="M0 0 C3.23729119 2.49541196 5.76300366 5.06410254 7 9 C7.6897785 14.91238713 6.92206692 18.47261264 3.47265625 23.36328125 C1.13217488 25.9645059 -0.53490492 26.54234593 -4 27 C-12.2793251 27.30614868 -12.2793251 27.30614868 -15.71875 24.6953125 C-19.38141212 20.41510851 -20.30039122 16.6141031 -20.21875 11.0625 C-19.77696084 6.89705934 -18.06208723 3.96251655 -15 1.1875 C-10.10589431 -1.71837525 -5.38328321 -1.26412561 0 0 Z " fill="#060606" transform="translate(348,420)"/>
<path d="M0 0 C3.23729119 2.49541196 5.76300366 5.06410254 7 9 C7.6897785 14.91238713 6.92206692 18.47261264 3.47265625 23.36328125 C1.13217488 25.9645059 -0.53490492 26.54234593 -4 27 C-12.2793251 27.30614868 -12.2793251 27.30614868 -15.71875 24.6953125 C-19.38141212 20.41510851 -20.30039122 16.6141031 -20.21875 11.0625 C-19.77696084 6.89705934 -18.06208723 3.96251655 -15 1.1875 C-10.10589431 -1.71837525 -5.38328321 -1.26412561 0 0 Z " fill="#060606" transform="translate(290,420)"/>
<path d="M0 0 C2.31 0 4.62 0 7 0 C7.33 0.99 7.66 1.98 8 3 C8.680625 2.484375 9.36125 1.96875 10.0625 1.4375 C13.90525323 -0.44299626 15.91132242 -0.11509388 20 1 C22.19921875 2.35546875 22.19921875 2.35546875 24 5 C24.49839351 8.76004664 24.37486298 12.46569119 24.25 16.25 C24.23195313 17.28125 24.21390625 18.3125 24.1953125 19.375 C24.14822712 21.91761064 24.0824805 24.45833162 24 27 C21.69 27 19.38 27 17 27 C16.505 17.1 16.505 17.1 16 7 C11.361186 5.46274824 11.361186 5.46274824 9.21948242 7.1730957 C7.76696119 9.349115 7.58053225 10.62899054 7.48828125 13.23046875 C7.45283203 14.03291016 7.41738281 14.83535156 7.38085938 15.66210938 C7.34702148 16.91217773 7.34702148 16.91217773 7.3125 18.1875 C7.27833984 19.03248047 7.24417969 19.87746094 7.20898438 20.74804688 C7.12658529 22.83156649 7.06161355 24.91576216 7 27 C4.69 27 2.38 27 0 27 C0 18.09 0 9.18 0 0 Z " fill="#0F0F0F" transform="translate(418,419)"/>
<path d="M0 0 C1.68161626 1.89181829 2.15693498 3.20027859 2.5 5.6875 C0.19 5.6875 -2.12 5.6875 -4.5 5.6875 C-4.83 5.0275 -5.16 4.3675 -5.5 3.6875 C-7.81 3.6875 -10.12 3.6875 -12.5 3.6875 C-12.5 4.6775 -12.5 5.6675 -12.5 6.6875 C-11.59636719 6.94144531 -10.69273437 7.19539063 -9.76171875 7.45703125 C-8.58222656 7.80121094 -7.40273438 8.14539063 -6.1875 8.5 C-4.42986328 9.00466797 -4.42986328 9.00466797 -2.63671875 9.51953125 C1.7747718 11.16216596 1.7747718 11.16216596 3.5 13.6875 C3.42857823 17.61569709 3.08982358 19.91462772 0.6875 23.0625 C-3.47653825 26.15578556 -7.39038746 25.95642698 -12.5 25.6875 C-15.89164268 24.68542375 -18.38412486 23.58290809 -20.5 20.6875 C-20.5 19.3675 -20.5 18.0475 -20.5 16.6875 C-18.19 16.6875 -15.88 16.6875 -13.5 16.6875 C-13.17 17.6775 -12.84 18.6675 -12.5 19.6875 C-9.86 19.6875 -7.22 19.6875 -4.5 19.6875 C-4.5 18.6975 -4.5 17.7075 -4.5 16.6875 C-5.41523438 16.42195313 -6.33046875 16.15640625 -7.2734375 15.8828125 C-8.46195312 15.52960938 -9.65046875 15.17640625 -10.875 14.8125 C-12.05835938 14.46445312 -13.24171875 14.11640625 -14.4609375 13.7578125 C-17.5 12.6875 -17.5 12.6875 -19.5 10.6875 C-20.1822335 3.63775381 -20.1822335 3.63775381 -17.75 0.25 C-12.48168393 -3.40855282 -5.56066809 -2.91935075 0 0 Z " fill="#040404" transform="translate(379.5,421.3125)"/>
<path d="M0 0 C1.02989548 -0.00430527 1.02989548 -0.00430527 2.08059692 -0.00869751 C3.5278608 -0.01073137 4.97515259 -0.00524901 6.42236328 0.00732422 C8.61945209 0.02334011 10.81468789 0.00748004 13.01171875 -0.01171875 C14.42448317 -0.00973523 15.83724646 -0.00588931 17.25 0 C19.15821533 0.00507568 19.15821533 0.00507568 21.10498047 0.01025391 C25.34178242 0.46049553 28.00371526 1.42004798 31.7578125 3.3984375 C32.3203125 5.6484375 32.3203125 5.6484375 32.7578125 8.3984375 C34.19145603 10.33364728 35.75052255 12.07803421 37.3828125 13.84765625 C40.04938474 16.85512551 39.86586311 19.10608472 39.8203125 23.0234375 C39.81128906 24.02632813 39.80226563 25.02921875 39.79296875 26.0625 C39.78136719 26.83335937 39.76976562 27.60421875 39.7578125 28.3984375 C38.4378125 28.0684375 37.1178125 27.7384375 35.7578125 27.3984375 C35.80421875 27.9553125 35.850625 28.5121875 35.8984375 29.0859375 C36.18341613 35.11119991 35.20716934 39.40038983 31.7578125 44.3984375 C28.5703125 47.3984375 28.5703125 47.3984375 25.7578125 47.3984375 C25.7578125 45.7484375 25.7578125 44.0984375 25.7578125 42.3984375 C26.3559375 42.3365625 26.9540625 42.2746875 27.5703125 42.2109375 C29.89175653 41.54113279 29.89175653 41.54113279 31.4453125 39.5234375 C33.37233616 34.93528593 33.50725281 30.33187137 33.7578125 25.3984375 C35.0778125 25.3984375 36.3978125 25.3984375 37.7578125 25.3984375 C36.80110699 18.97280345 35.56783753 14.8877942 30.7578125 10.3984375 C28.44840683 9.13353481 26.25569166 8.28004191 23.7578125 7.3984375 C24.4178125 6.0784375 25.0778125 4.7584375 25.7578125 3.3984375 C15.1978125 3.3984375 4.6378125 3.3984375 -6.2421875 3.3984375 C-5.5821875 4.7184375 -4.9221875 6.0384375 -4.2421875 7.3984375 C-5.2940625 7.7696875 -6.3459375 8.1409375 -7.4296875 8.5234375 C-11.38980607 10.25498732 -14.15576773 12.58420136 -16.2421875 16.3984375 C-17.1738767 19.36819681 -17.78416021 22.32213479 -18.2421875 25.3984375 C-16.9221875 25.3984375 -15.6021875 25.3984375 -14.2421875 25.3984375 C-14.20480469 26.13449219 -14.16742188 26.87054688 -14.12890625 27.62890625 C-13.65242756 34.97404367 -13.65242756 34.97404367 -10.2421875 41.3984375 C-10.2421875 42.0584375 -10.2421875 42.7184375 -10.2421875 43.3984375 C-8.9221875 42.7384375 -7.6021875 42.0784375 -6.2421875 41.3984375 C-6.2421875 43.3784375 -6.2421875 45.3584375 -6.2421875 47.3984375 C-10.59934211 46.27802632 -12.84892175 44.23944199 -15.3046875 40.6171875 C-17.09593128 36.37791056 -16.60893094 31.90530686 -16.2421875 27.3984375 C-17.5621875 27.7284375 -18.8821875 28.0584375 -20.2421875 28.3984375 C-20.81174576 21.51311098 -20.62147577 16.72407611 -16.62890625 10.95703125 C-15.2421875 9.3984375 -15.2421875 9.3984375 -12.2421875 7.3984375 C-12.2421875 6.0784375 -12.2421875 4.7584375 -12.2421875 3.3984375 C-8.36613661 0.13249717 -4.94208365 0.01316886 0 0 Z " fill="#212121" transform="translate(340.2421875,266.6015625)"/>
<path d="M0 0 C2.64 0 5.28 0 8 0 C8.67099984 2.60311992 9.33695338 5.20735398 10 7.8125 C10.19078125 8.55048828 10.3815625 9.28847656 10.578125 10.04882812 C11.35262914 13.10535341 12 15.83373478 12 19 C12.66 19 13.32 19 14 19 C14.10957031 18.38253906 14.21914063 17.76507813 14.33203125 17.12890625 C15.4377266 11.22287499 16.95361435 5.64802441 19 0 C21.31 0 23.62 0 26 0 C23.03 8.91 20.06 17.82 17 27 C14.36 27 11.72 27 9 27 C6.03 18.09 3.06 9.18 0 0 Z " fill="#030303" transform="translate(299,419)"/>
<path d="M0 0 C2.98704569 0.49784095 4.39324263 1.26216175 7 3 C7 3.99 7 4.98 7 6 C6.01 6.33 5.02 6.66 4 7 C4.9075 7.556875 5.815 8.11375 6.75 8.6875 C11.82288829 12.29705513 15.59250607 16.82787847 17 23 C17.24109817 27.67833054 17.17524921 32.32019706 17 37 C16.01 37 15.02 37 14 37 C14 36.34 14 35.68 14 35 C13.34 35 12.68 35 12 35 C12.05800781 35.82242188 12.11601562 36.64484375 12.17578125 37.4921875 C12.50027108 45.52099308 11.7806597 51.39983549 7 58 C4.8543965 60.29754538 2.67821433 62.34045158 0 64 C-0.66 64 -1.32 64 -2 64 C-2 61.69 -2 59.38 -2 57 C-1.34 57 -0.68 57 0 57 C0 57.66 0 58.32 0 59 C0.66 59 1.32 59 2 59 C2.28746094 58.41992188 2.57492187 57.83984375 2.87109375 57.2421875 C3.56728653 55.85943783 4.28452466 54.48678194 5.03515625 53.1328125 C8.52732656 46.30781045 8.78459345 39.57154016 9 32 C10.65 32 12.3 32 14 32 C13.12331688 24.88185648 12.0629247 18.38015056 7 13 C3.25103295 10.43609411 -0.59455748 9.01060263 -5 8 C-5 6.68 -5 5.36 -5 4 C-3.0625 2.3125 -3.0625 2.3125 -1 1 C-0.67 0.67 -0.34 0.34 0 0 Z " fill="#191919" transform="translate(375,256)"/>
<path d="M0 0 C1.98 0 3.96 0 6 0 C6 11.88 6 23.76 6 36 C4.02 36 2.04 36 0 36 C0 24.12 0 12.24 0 0 Z " fill="#000000" transform="translate(258,410)"/>
<path d="M0 0 C2.41389574 2.64749856 2.93296825 4.46374599 3.375 8 C2.93296825 11.53625401 2.41389574 13.35250144 0 16 C-5.83957219 16.8342246 -5.83957219 16.8342246 -8.6953125 14.78125 C-10.42149149 12.42455053 -10.40088378 10.89898332 -10.375 8 C-10.38273437 7.13375 -10.39046875 6.2675 -10.3984375 5.375 C-9.41320369 -0.49776626 -5.28103296 -0.75443328 0 0 Z " fill="#F3F3F3" transform="translate(404,425)"/>
<path d="M0 0 C2.41389574 2.64749856 2.93296825 4.46374599 3.375 8 C2.93296825 11.53625401 2.41389574 13.35250144 0 16 C-5.83957219 16.8342246 -5.83957219 16.8342246 -8.6953125 14.78125 C-10.42149149 12.42455053 -10.40088378 10.89898332 -10.375 8 C-10.38273437 7.13375 -10.39046875 6.2675 -10.3984375 5.375 C-9.41320369 -0.49776626 -5.28103296 -0.75443328 0 0 Z " fill="#F3F3F3" transform="translate(345,425)"/>
<path d="M0 0 C2.41389574 2.64749856 2.93296825 4.46374599 3.375 8 C2.93296825 11.53625401 2.41389574 13.35250144 0 16 C-5.83957219 16.8342246 -5.83957219 16.8342246 -8.6953125 14.78125 C-10.42149149 12.42455053 -10.40088378 10.89898332 -10.375 8 C-10.38273437 7.13375 -10.39046875 6.2675 -10.3984375 5.375 C-9.41320369 -0.49776626 -5.28103296 -0.75443328 0 0 Z " fill="#F3F3F3" transform="translate(287,425)"/>
<path d="M0 0 C4.66308199 -0.02468646 9.32612608 -0.04285349 13.98925781 -0.05493164 C15.57617861 -0.05996588 17.16309477 -0.06679369 18.75 -0.07543945 C21.02865749 -0.08754482 23.30725376 -0.09323733 25.5859375 -0.09765625 C26.65320572 -0.10539818 26.65320572 -0.10539818 27.74203491 -0.11329651 C32.77225659 -0.11387171 32.77225659 -0.11387171 35 1 C34.67 1.99 34.34 2.98 34 4 C2.67959553 4.20638953 2.67959553 4.20638953 -11 3 C-11 2.67 -11 2.34 -11 2 C-5.555 1.505 -5.555 1.505 0 1 C0 0.67 0 0.34 0 0 Z " fill="#141414" transform="translate(340,254)"/>
<path d="M0 0 C0.33 0 0.66 0 1 0 C1.16435547 1.30324219 1.16435547 1.30324219 1.33203125 2.6328125 C2.4796898 10.97433078 3.50971438 17.18112323 10 23 C10.33 21.68 10.66 20.36 11 19 C11.33 19 11.66 19 12 19 C12 21.97 12 24.94 12 28 C5.52010124 26.28473268 2.3913707 21.21749706 -1 15.8125 C-2.45304897 10.27275082 -1.25726184 5.50843499 0 0 Z " fill="#222222" transform="translate(315,292)"/>
<path d="M0 0 C0.33 0 0.66 0 1 0 C1 3.3 1 6.6 1 10 C2.65 10 4.3 10 6 10 C5.88655624 12.1464753 5.75893655 14.29220592 5.625 16.4375 C5.55539062 17.63246094 5.48578125 18.82742188 5.4140625 20.05859375 C5.20910156 21.51458984 5.20910156 21.51458984 5 23 C4.34 23.33 3.68 23.66 3 24 C3 20.37 3 16.74 3 13 C2.34 13 1.68 13 1 13 C1 13.66 1 14.32 1 15 C0.01 15 -0.98 15 -2 15 C-2.05429959 13.25034642 -2.09292823 11.50020213 -2.125 9.75 C-2.15980469 8.28820312 -2.15980469 8.28820312 -2.1953125 6.796875 C-1.99862781 3.9803502 -1.44568916 2.39050964 0 0 Z " fill="#111111" transform="translate(310,278)"/>
<path d="M0 0 C1.05692047 0.00424484 1.05692047 0.00424484 2.13519287 0.00857544 C4.3767626 0.01973449 6.61792686 0.04483057 8.859375 0.0703125 C10.38280671 0.08034786 11.90624471 0.08947274 13.4296875 0.09765625 C17.15638086 0.11965959 20.88283833 0.15415978 24.609375 0.1953125 C20.87930641 3.92538109 15.13670561 3.25271283 10.11328125 3.29296875 C8.13278876 3.28638904 6.15230758 3.27456307 4.171875 3.2578125 C3.15416016 3.25330078 2.13644531 3.24878906 1.08789062 3.24414062 C-1.40501009 3.23243687 -3.89778574 3.21604098 -6.390625 3.1953125 C-6.060625 3.8553125 -5.730625 4.5153125 -5.390625 5.1953125 C-6.710625 5.1953125 -8.030625 5.1953125 -9.390625 5.1953125 C-9.390625 4.5353125 -9.390625 3.8753125 -9.390625 3.1953125 C-10.050625 2.8653125 -10.710625 2.5353125 -11.390625 2.1953125 C-7.65430857 -0.20423294 -4.36267002 -0.03462437 0 0 Z " fill="#282828" transform="translate(340.390625,266.8046875)"/>
<path d="M0 0 C0.33 0 0.66 0 1 0 C1 2.64 1 5.28 1 8 C0.01 8 -0.98 8 -2 8 C-1.95359375 8.556875 -1.9071875 9.11375 -1.859375 9.6875 C-1.57439637 15.71276241 -2.55064316 20.00195233 -6 25 C-9.1875 28 -9.1875 28 -12 28 C-12 26.35 -12 24.7 -12 23 C-11.401875 22.938125 -10.80375 22.87625 -10.1875 22.8125 C-7.86605597 22.14269529 -7.86605597 22.14269529 -6.3125 20.125 C-4.38547634 15.53684843 -4.25055969 10.93343387 -4 6 C-2.68 6 -1.36 6 0 6 C0 4.02 0 2.04 0 0 Z " fill="#202020" transform="translate(378,286)"/>
<path d="M0 0 C0.66796875 1.74609375 0.66796875 1.74609375 1 4 C-0.07421875 6.03515625 -0.07421875 6.03515625 -1.6875 8.0625 C-2.20699219 8.73410156 -2.72648437 9.40570313 -3.26171875 10.09765625 C-5.04415757 12.04832525 -6.78952707 13.55486393 -9 15 C-9.66 15 -10.32 15 -11 15 C-11 12.69 -11 10.38 -11 8 C-10.34 8 -9.68 8 -9 8 C-9 8.66 -9 9.32 -9 10 C-8.34 10 -7.68 10 -7 10 C-6.773125 9.46375 -6.54625 8.9275 -6.3125 8.375 C-4.56617944 5.21499137 -2.3597151 2.7323017 0 0 Z " fill="#181818" transform="translate(384,305)"/>
<path d="M0 0 C0.33 0 0.66 0 1 0 C1.03738281 0.66386719 1.07476562 1.32773437 1.11328125 2.01171875 C1.49526105 7.14223169 1.92177048 10.71724589 5 15 C5 15.66 5 16.32 5 17 C6.32 16.34 7.64 15.68 9 15 C9 16.98 9 18.96 9 21 C4.68919023 19.89150606 2.31889081 17.87678371 -0.12890625 14.28515625 C-1.88759202 9.67156353 -0.78948907 4.76038457 0 0 Z " fill="#313131" transform="translate(325,293)"/>
<path d="M0 0 C0.66 0.33 1.32 0.66 2 1 C1.38511719 2.12148438 1.38511719 2.12148438 0.7578125 3.265625 C0.21898437 4.25046875 -0.31984375 5.2353125 -0.875 6.25 C-1.40867187 7.22453125 -1.94234375 8.1990625 -2.4921875 9.203125 C-3.70419466 11.45130408 -4.87547567 13.7072805 -6 16 C-6.33 15.34 -6.66 14.68 -7 14 C-7.66 14.99 -8.32 15.98 -9 17 C-8.69164398 9.59945554 -5.13434535 5.13434535 0 0 Z " fill="#151515" transform="translate(317,265)"/>
<path d="M0 0 C0.66 0 1.32 0 2 0 C2 2.64 2 5.28 2 8 C3.32 8.33 4.64 8.66 6 9 C5.67 11.64 5.34 14.28 5 17 C4.67 17 4.34 17 4 17 C4 14.69 4 12.38 4 10 C2.68 10.33 1.36 10.66 0 11 C0 7.37 0 3.74 0 0 Z " fill="#161616" transform="translate(320,284)"/>
<path d="M0 0 C4.29 0.33 8.58 0.66 13 1 C13 1.33 13 1.66 13 2 C11.576875 2.2165625 11.576875 2.2165625 10.125 2.4375 C7.1065506 2.82935399 7.1065506 2.82935399 5 4 C2.2764805 3.91075148 -0.41013311 3.76646668 -3.125 3.5625 C-4.25615234 3.48418945 -4.25615234 3.48418945 -5.41015625 3.40429688 C-7.2737937 3.27454996 -9.13694996 3.13792512 -11 3 C-11 2.67 -11 2.34 -11 2 C-5.555 1.505 -5.555 1.505 0 1 C0 0.67 0 0.34 0 0 Z " fill="#585858" transform="translate(340,254)"/>
<path d="M0 0 C1.07765625 0.00902344 2.1553125 0.01804687 3.265625 0.02734375 C4.08546875 0.03894531 4.9053125 0.05054688 5.75 0.0625 C3.20716494 2.60533506 1.84455338 2.49353635 -1.6875 2.8125 C-2.65558594 2.91046875 -3.62367188 3.0084375 -4.62109375 3.109375 C-7.25 3.0625 -7.25 3.0625 -10.25 1.0625 C-6.78777385 -0.00473961 -3.60960734 -0.03923486 0 0 Z " fill="#373737" transform="translate(359.25,266.9375)"/>
<path d="M0 0 C0.33 1.98 0.66 3.96 1 6 C-1.31 6 -3.62 6 -6 6 C-6 4.68 -6 3.36 -6 2 C-1.125 0 -1.125 0 0 0 Z " fill="#2B2B2B" transform="translate(376,258)"/>
<path d="M0 0 C2.98704569 0.49784095 4.39324263 1.26216175 7 3 C7 3.99 7 4.98 7 6 C5.35 5.67 3.7 5.34 2 5 C1.67 5.66 1.34 6.32 1 7 C1 5.35 1 3.7 1 2 C0.34 1.67 -0.32 1.34 -1 1 C-0.67 0.67 -0.34 0.34 0 0 Z " fill="#0E0E0E" transform="translate(375,256)"/>
<path d="M0 0 C0.66 0 1.32 0 2 0 C4.02558881 3.34939881 4.21738987 5.86962551 4.125 9.75 C4.10695313 10.73484375 4.08890625 11.7196875 4.0703125 12.734375 C4.03550781 13.85585938 4.03550781 13.85585938 4 15 C3.34 14.67 2.68 14.34 2 14 C2.04125 12.9275 2.0825 11.855 2.125 10.75 C2.00780624 7.23418706 1.67021593 5.92287789 0 3 C0 2.01 0 1.02 0 0 Z " fill="#323232" transform="translate(376,280)"/>
<path d="M0 0 C0.99 0.33 1.98 0.66 3 1 C2.38125 1.9075 1.7625 2.815 1.125 3.75 C-0.44389611 6.14948817 -1.80443821 8.40961612 -3 11 C-3.75 8.875 -3.75 8.875 -4 6 C-2.0625 2.6875 -2.0625 2.6875 0 0 Z " fill="#2A2A2A" transform="translate(325,276)"/>
<path d="M0 0 C2.31 0.33 4.62 0.66 7 1 C6.67 1.99 6.34 2.98 6 4 C-0.93 3.505 -0.93 3.505 -8 3 C-8 2.67 -8 2.34 -8 2 C-5.36 1.67 -2.72 1.34 0 1 C0 0.67 0 0.34 0 0 Z " fill="#4F4F4F" transform="translate(368,254)"/>
<path d="M0 0 C1.65 0 3.3 0 5 0 C5.33 0.99 5.66 1.98 6 3 C3.69 3.66 1.38 4.32 -1 5 C-0.67 3.35 -0.34 1.7 0 0 Z " fill="#060606" transform="translate(324,260)"/>
<path d="M0 0 C-0.33 2.31 -0.66 4.62 -1 7 C-2.32 7.33 -3.64 7.66 -5 8 C-3.91891892 0 -3.91891892 0 0 0 Z " fill="#272727" transform="translate(387,299)"/>
<path d="M0 0 C3.36704285 -0.2295711 5.41370268 -0.33943529 8.375 1.375 C8.91125 1.91125 9.4475 2.4475 10 3 C10 3.66 10 4.32 10 5 C8.68 4.67 7.36 4.34 6 4 C6 3.34 6 2.68 6 2 C3.03 1.505 3.03 1.505 0 1 C0 0.67 0 0.34 0 0 Z " fill="#181818" transform="translate(363,268)"/>
<path d="M0 0 C1.32 0 2.64 0 4 0 C3.67 1.98 3.34 3.96 3 6 C2.34 5.34 1.68 4.68 1 4 C0.34 4.99 -0.32 5.98 -1 7 C-0.67 4.69 -0.34 2.38 0 0 Z " fill="#383838" transform="translate(309,275)"/>
<path d="M0 0 C4.29425875 1.07356469 4.74740471 1.5084773 7 5 C6.34 5.66 5.68 6.32 5 7 C3.35 4.69 1.7 2.38 0 0 Z " fill="#1F1F1F" transform="translate(370,275)"/>
</svg>
