<?xml version="1.0" encoding="UTF-8"?>
<svg version="1.1" xmlns="http://www.w3.org/2000/svg" width="700" height="700">
<path d="M0 0 C231 0 462 0 700 0 C700 231 700 462 700 700 C469 700 238 700 0 700 C0 469 0 238 0 0 Z " fill="#FEFEFE" transform="translate(0,0)"/>
<path d="M0 0 C1.11713379 0.00628418 1.11713379 0.00628418 2.25683594 0.01269531 C9.34690144 0.15751629 15.20895 1.35954264 21.421875 4.84765625 C24.80007944 8.52290971 24.35713414 11.67390862 24.1875 16.5 C24.16091309 17.87321411 24.16091309 17.87321411 24.13378906 19.27416992 C23.50673526 40.23643755 22.47490455 71.52509545 6.6875 87.3125 C3.35537704 88.97856148 0.24811195 89.15903388 -3.3125 88.3125 C-14.0747012 80.87557182 -17.27277834 64.55050808 -19.5 52.4453125 C-21.00222402 43.44935522 -21.75051639 34.4088714 -22.3125 25.3125 C-22.37518066 24.47750977 -22.43786133 23.64251953 -22.50244141 22.78222656 C-23.39886902 10.21203874 -23.39886902 10.21203874 -20.9921875 6.00390625 C-15.27343081 0.65699697 -7.50324867 -0.05769119 0 0 Z " fill="#030303" transform="translate(349.3125,310.6875)"/>
<path d="M0 0 C5.74091541 0.32416914 11.44803171 0.61793144 17.19921875 0.4921875 C18.04137939 0.47486572 18.88354004 0.45754395 19.7512207 0.43969727 C21.32454155 0.39791652 22.89755092 0.33967597 24.46948242 0.26147461 C29.80859132 0.12807166 34.57357384 1.10689737 38.8125 4.5625 C39.53271484 6.70239258 39.53271484 6.70239258 39.8125 8.5625 C38.8225 8.8925 37.8325 9.2225 36.8125 9.5625 C38.17375 10.3978125 38.17375 10.3978125 39.5625 11.25 C44.63538829 14.85955513 48.40500607 19.39037847 49.8125 25.5625 C50.05359817 30.24083054 49.98774921 34.88269706 49.8125 39.5625 C48.8225 39.5625 47.8325 39.5625 46.8125 39.5625 C46.8125 38.9025 46.8125 38.2425 46.8125 37.5625 C46.1525 37.5625 45.4925 37.5625 44.8125 37.5625 C44.87050781 38.38492188 44.92851562 39.20734375 44.98828125 40.0546875 C45.31277108 48.08349308 44.5931597 53.96233549 39.8125 60.5625 C37.6668965 62.86004538 35.49071433 64.90295158 32.8125 66.5625 C32.1525 66.5625 31.4925 66.5625 30.8125 66.5625 C30.3175 62.1075 30.3175 62.1075 29.8125 57.5625 C29.19375 58.0575 28.575 58.5525 27.9375 59.0625 C25.8125 60.5625 25.8125 60.5625 23.8125 60.5625 C23.8125 58.9125 23.8125 57.2625 23.8125 55.5625 C24.410625 55.500625 25.00875 55.43875 25.625 55.375 C27.94644403 54.70519529 27.94644403 54.70519529 29.5 52.6875 C31.42702366 48.09934843 31.56194031 43.49593387 31.8125 38.5625 C33.1325 38.5625 34.4525 38.5625 35.8125 38.5625 C34.85579449 32.13686595 33.62252503 28.0518567 28.8125 23.5625 C26.50309433 22.29759731 24.31037916 21.44410441 21.8125 20.5625 C22.4725 19.2425 23.1325 17.9225 23.8125 16.5625 C13.2525 16.5625 2.6925 16.5625 -8.1875 16.5625 C-7.5275 17.8825 -6.8675 19.2025 -6.1875 20.5625 C-7.239375 20.93375 -8.29125 21.305 -9.375 21.6875 C-13.33511857 23.41904982 -16.10108023 25.74826386 -18.1875 29.5625 C-19.1191892 32.53225931 -19.72947271 35.48619729 -20.1875 38.5625 C-18.8675 38.5625 -17.5475 38.5625 -16.1875 38.5625 C-16.15011719 39.29855469 -16.11273438 40.03460938 -16.07421875 40.79296875 C-15.59774006 48.13810617 -15.59774006 48.13810617 -12.1875 54.5625 C-12.1875 55.2225 -12.1875 55.8825 -12.1875 56.5625 C-10.8675 55.9025 -9.5475 55.2425 -8.1875 54.5625 C-8.1875 56.5425 -8.1875 58.5225 -8.1875 60.5625 C-12.9375 58.6875 -12.9375 58.6875 -15.1875 57.5625 C-15.1875 60.5325 -15.1875 63.5025 -15.1875 66.5625 C-21.61306652 64.86161475 -24.80066819 59.87388635 -28.0625 54.4375 C-30.14040501 49.15160129 -29.41356615 43.13042548 -29.1875 37.5625 C-29.8475 37.5625 -30.5075 37.5625 -31.1875 37.5625 C-31.1875 38.2225 -31.1875 38.8825 -31.1875 39.5625 C-32.1775 39.5625 -33.1675 39.5625 -34.1875 39.5625 C-35.18775591 22.69151693 -35.18775591 22.69151693 -29.1875 15.5625 C-26.97807478 13.37133449 -24.69419347 11.40459463 -22.1875 9.5625 C-23.1775 9.2325 -24.1675 8.9025 -25.1875 8.5625 C-23.960085 4.74387555 -21.62701886 3.34763586 -18.234375 1.39453125 C-12.28311758 -1.02458675 -6.2612717 -0.38143881 0 0 Z " fill="#F4F4F4" transform="translate(342.1875,248.4375)"/>
<path d="M0 0 C4.00521387 2.88747977 7.46370991 6.48991981 9.6875 10.9375 C10.1947965 16.49281248 10.45010422 21.35580236 8 26.4375 C4.68100379 30.02560401 0.47397479 34.56239762 -4.546875 35.23828125 C-10.64721722 35.26669899 -16.09599143 34.99147223 -20.78125 30.54296875 C-25.36168084 25.2834624 -26.79852365 21.32539483 -26.6171875 14.46484375 C-25.92758523 8.74468131 -22.98650122 5.23194871 -18.75 1.5 C-12.90544005 -2.58572976 -6.57014886 -2.10740624 0 0 Z " fill="#050505" transform="translate(358.3125,273.0625)"/>
<path d="M0 0 C5.74091541 0.32416914 11.44803171 0.61793144 17.19921875 0.4921875 C18.04137939 0.47486572 18.88354004 0.45754395 19.7512207 0.43969727 C21.32454155 0.39791652 22.89755092 0.33967597 24.46948242 0.26147461 C29.80859132 0.12807166 34.57357384 1.10689737 38.8125 4.5625 C39.53271484 6.70239258 39.53271484 6.70239258 39.8125 8.5625 C38.8225 8.8925 37.8325 9.2225 36.8125 9.5625 C38.17375 10.3978125 38.17375 10.3978125 39.5625 11.25 C44.63538829 14.85955513 48.40500607 19.39037847 49.8125 25.5625 C50.05359817 30.24083054 49.98774921 34.88269706 49.8125 39.5625 C48.8225 39.5625 47.8325 39.5625 46.8125 39.5625 C46.8125 38.9025 46.8125 38.2425 46.8125 37.5625 C46.1525 37.5625 45.4925 37.5625 44.8125 37.5625 C44.87050781 38.38492188 44.92851562 39.20734375 44.98828125 40.0546875 C45.31277108 48.08349308 44.5931597 53.96233549 39.8125 60.5625 C37.6668965 62.86004538 35.49071433 64.90295158 32.8125 66.5625 C32.1525 66.5625 31.4925 66.5625 30.8125 66.5625 C30.8125 64.2525 30.8125 61.9425 30.8125 59.5625 C31.4725 59.5625 32.1325 59.5625 32.8125 59.5625 C32.8125 60.2225 32.8125 60.8825 32.8125 61.5625 C33.4725 61.5625 34.1325 61.5625 34.8125 61.5625 C35.24369141 60.69238281 35.24369141 60.69238281 35.68359375 59.8046875 C36.37978653 58.42193783 37.09702466 57.04928194 37.84765625 55.6953125 C41.33982656 48.87031045 41.59709345 42.13404016 41.8125 34.5625 C43.4625 34.5625 45.1125 34.5625 46.8125 34.5625 C45.93581688 27.44435648 44.8754247 20.94265056 39.8125 15.5625 C36.06353295 12.99859411 32.21794252 11.57310263 27.8125 10.5625 C27.8125 6.5625 27.8125 6.5625 29.8125 4.5625 C13.9725 4.5625 -1.8675 4.5625 -18.1875 4.5625 C-18.1875 5.2225 -18.1875 5.8825 -18.1875 6.5625 C-16.5375 6.5625 -14.8875 6.5625 -13.1875 6.5625 C-12.8575 7.5525 -12.5275 8.5425 -12.1875 9.5625 C-12.77917969 9.80484375 -13.37085938 10.0471875 -13.98046875 10.296875 C-20.77389739 13.17826398 -25.43847252 15.32034818 -28.4375 22.375 C-29.93814726 26.45942299 -30.81126524 30.23580023 -31.1875 34.5625 C-29.5375 34.5625 -27.8875 34.5625 -26.1875 34.5625 C-26.14882813 35.92181641 -26.14882813 35.92181641 -26.109375 37.30859375 C-25.69791833 46.14556092 -24.90847195 53.32472639 -18.9375 60.125 C-18.36 60.599375 -17.7825 61.07375 -17.1875 61.5625 C-16.8575 60.2425 -16.5275 58.9225 -16.1875 57.5625 C-15.8575 57.5625 -15.5275 57.5625 -15.1875 57.5625 C-15.1875 60.5325 -15.1875 63.5025 -15.1875 66.5625 C-21.61306652 64.86161475 -24.80066819 59.87388635 -28.0625 54.4375 C-30.14040501 49.15160129 -29.41356615 43.13042548 -29.1875 37.5625 C-29.8475 37.5625 -30.5075 37.5625 -31.1875 37.5625 C-31.1875 38.2225 -31.1875 38.8825 -31.1875 39.5625 C-32.1775 39.5625 -33.1675 39.5625 -34.1875 39.5625 C-35.18775591 22.69151693 -35.18775591 22.69151693 -29.1875 15.5625 C-26.97807478 13.37133449 -24.69419347 11.40459463 -22.1875 9.5625 C-23.1775 9.2325 -24.1675 8.9025 -25.1875 8.5625 C-23.960085 4.74387555 -21.62701886 3.34763586 -18.234375 1.39453125 C-12.28311758 -1.02458675 -6.2612717 -0.38143881 0 0 Z " fill="#191919" transform="translate(342.1875,248.4375)"/>
<path d="M0 0 C3.23729119 2.49541196 5.76300366 5.06410254 7 9 C7.6897785 14.91238713 6.92206692 18.47261264 3.47265625 23.36328125 C1.13217488 25.9645059 -0.53490492 26.54234593 -4 27 C-8.35635516 27.22741169 -12.18201615 27.11378457 -15.9765625 24.7890625 C-19.62383314 21.24550572 -20.44388305 17.95975708 -20.6875 12.9375 C-20.48769714 9.13648846 -20.16204574 6.42043031 -17.8125 3.375 C-12.13955591 -1.41548612 -7.14263568 -1.83264994 0 0 Z " fill="#080808" transform="translate(290,415)"/>
<path d="M0 0 C3.23729119 2.49541196 5.76300366 5.06410254 7 9 C7.6897785 14.91238713 6.92206692 18.47261264 3.47265625 23.36328125 C1.13217488 25.9645059 -0.53490492 26.54234593 -4 27 C-12.2793251 27.30614868 -12.2793251 27.30614868 -15.71875 24.6953125 C-19.38141212 20.41510851 -20.30039122 16.6141031 -20.21875 11.0625 C-19.77696084 6.89705934 -18.06208723 3.96251655 -15 1.1875 C-10.10589431 -1.71837525 -5.38328321 -1.26412561 0 0 Z " fill="#070707" transform="translate(407,415)"/>
<path d="M0 0 C3.23729119 2.49541196 5.76300366 5.06410254 7 9 C7.6897785 14.91238713 6.92206692 18.47261264 3.47265625 23.36328125 C1.13217488 25.9645059 -0.53490492 26.54234593 -4 27 C-12.2793251 27.30614868 -12.2793251 27.30614868 -15.71875 24.6953125 C-19.59729903 20.16282207 -20.36133369 16.02446913 -20.27734375 10.28515625 C-19.83767775 6.66255607 -18.41791641 4.67243392 -16 2 C-10.94878369 -1.72827871 -5.8779196 -1.61912643 0 0 Z " fill="#070707" transform="translate(349,415)"/>
<path d="M0 0 C4.62 0 9.24 0 14 0 C14 17.49 14 34.98 14 53 C9.38 53 4.76 53 0 53 C0 51.02 0 49.04 0 47 C2.31 47 4.62 47 7 47 C7 33.47 7 19.94 7 6 C4.69 6 2.38 6 0 6 C0 4.02 0 2.04 0 0 Z " fill="#020202" transform="translate(447,399)"/>
<path d="M0 0 C4.62 0 9.24 0 14 0 C14 1.98 14 3.96 14 6 C11.69 6 9.38 6 7 6 C7 19.53 7 33.06 7 47 C9.31 47 11.62 47 14 47 C14 48.98 14 50.96 14 53 C9.38 53 4.76 53 0 53 C0 35.51 0 18.02 0 0 Z " fill="#010101" transform="translate(239,399)"/>
<path d="M0 0 C2.31 0 4.62 0 7 0 C7.33 0.99 7.66 1.98 8 3 C8.680625 2.484375 9.36125 1.96875 10.0625 1.4375 C13.90525323 -0.44299626 15.91132242 -0.11509388 20 1 C22.19921875 2.35546875 22.19921875 2.35546875 24 5 C24.49839351 8.76004664 24.37486298 12.46569119 24.25 16.25 C24.23195313 17.28125 24.21390625 18.3125 24.1953125 19.375 C24.14822712 21.91761064 24.0824805 24.45833162 24 27 C21.69 27 19.38 27 17 27 C16.505 17.1 16.505 17.1 16 7 C11.361186 5.46274824 11.361186 5.46274824 9.21948242 7.1730957 C7.76696119 9.349115 7.58053225 10.62899054 7.48828125 13.23046875 C7.45283203 14.03291016 7.41738281 14.83535156 7.38085938 15.66210938 C7.34702148 16.91217773 7.34702148 16.91217773 7.3125 18.1875 C7.27833984 19.03248047 7.24417969 19.87746094 7.20898438 20.74804688 C7.12658529 22.83156649 7.06161355 24.91576216 7 27 C4.69 27 2.38 27 0 27 C0 18.09 0 9.18 0 0 Z " fill="#0F0F0F" transform="translate(419,414)"/>
<path d="M0 0 C3.0625 2.4375 3.0625 2.4375 5 5 C5 5.66 5 6.32 5 7 C2.69 7 0.38 7 -2 7 C-2.33 6.34 -2.66 5.68 -3 5 C-5.31 5 -7.62 5 -10 5 C-10 5.99 -10 6.98 -10 8 C-9.09636719 8.25394531 -8.19273437 8.50789063 -7.26171875 8.76953125 C-6.08222656 9.11371094 -4.90273438 9.45789063 -3.6875 9.8125 C-1.92986328 10.31716797 -1.92986328 10.31716797 -0.13671875 10.83203125 C4.2747718 12.47466596 4.2747718 12.47466596 6 15 C5.92857823 18.92819709 5.58982358 21.22712772 3.1875 24.375 C-0.97653825 27.46828556 -4.89038746 27.26892698 -10 27 C-13.39164268 25.99792375 -15.88412486 24.89540809 -18 22 C-18 20.68 -18 19.36 -18 18 C-15.69 18 -13.38 18 -11 18 C-10.67 18.99 -10.34 19.98 -10 21 C-7.36 21 -4.72 21 -2 21 C-2 20.01 -2 19.02 -2 18 C-2.91523438 17.73445313 -3.83046875 17.46890625 -4.7734375 17.1953125 C-5.96195312 16.84210938 -7.15046875 16.48890625 -8.375 16.125 C-9.55835938 15.77695312 -10.74171875 15.42890625 -11.9609375 15.0703125 C-15 14 -15 14 -17 12 C-17.6822335 4.95025381 -17.6822335 4.95025381 -15.25 1.5625 C-10.53802909 -1.70970202 -5.40340651 -1.43257575 0 0 Z " fill="#040404" transform="translate(377,415)"/>
<path d="M0 0 C1.02989548 -0.00430527 1.02989548 -0.00430527 2.08059692 -0.00869751 C3.5278608 -0.01073137 4.97515259 -0.00524901 6.42236328 0.00732422 C8.61945209 0.02334011 10.81468789 0.00748004 13.01171875 -0.01171875 C14.42448317 -0.00973523 15.83724646 -0.00588931 17.25 0 C19.15821533 0.00507568 19.15821533 0.00507568 21.10498047 0.01025391 C25.34178242 0.46049553 28.00371526 1.42004798 31.7578125 3.3984375 C32.3203125 5.6484375 32.3203125 5.6484375 32.7578125 8.3984375 C34.19145603 10.33364728 35.75052255 12.07803421 37.3828125 13.84765625 C40.04938474 16.85512551 39.86586311 19.10608472 39.8203125 23.0234375 C39.81128906 24.02632813 39.80226563 25.02921875 39.79296875 26.0625 C39.78136719 26.83335937 39.76976562 27.60421875 39.7578125 28.3984375 C38.4378125 28.0684375 37.1178125 27.7384375 35.7578125 27.3984375 C35.80421875 27.9553125 35.850625 28.5121875 35.8984375 29.0859375 C36.18341613 35.11119991 35.20716934 39.40038983 31.7578125 44.3984375 C28.5703125 47.3984375 28.5703125 47.3984375 25.7578125 47.3984375 C25.7578125 45.7484375 25.7578125 44.0984375 25.7578125 42.3984375 C26.3559375 42.3365625 26.9540625 42.2746875 27.5703125 42.2109375 C29.89175653 41.54113279 29.89175653 41.54113279 31.4453125 39.5234375 C33.37233616 34.93528593 33.50725281 30.33187137 33.7578125 25.3984375 C35.0778125 25.3984375 36.3978125 25.3984375 37.7578125 25.3984375 C36.80110699 18.97280345 35.56783753 14.8877942 30.7578125 10.3984375 C28.44840683 9.13353481 26.25569166 8.28004191 23.7578125 7.3984375 C24.4178125 6.0784375 25.0778125 4.7584375 25.7578125 3.3984375 C15.1978125 3.3984375 4.6378125 3.3984375 -6.2421875 3.3984375 C-5.5821875 4.7184375 -4.9221875 6.0384375 -4.2421875 7.3984375 C-5.2940625 7.7696875 -6.3459375 8.1409375 -7.4296875 8.5234375 C-11.38980607 10.25498732 -14.15576773 12.58420136 -16.2421875 16.3984375 C-17.1738767 19.36819681 -17.78416021 22.32213479 -18.2421875 25.3984375 C-16.9221875 25.3984375 -15.6021875 25.3984375 -14.2421875 25.3984375 C-14.20480469 26.13449219 -14.16742188 26.87054688 -14.12890625 27.62890625 C-13.65242756 34.97404367 -13.65242756 34.97404367 -10.2421875 41.3984375 C-10.2421875 42.0584375 -10.2421875 42.7184375 -10.2421875 43.3984375 C-8.9221875 42.7384375 -7.6021875 42.0784375 -6.2421875 41.3984375 C-6.2421875 43.3784375 -6.2421875 45.3584375 -6.2421875 47.3984375 C-10.59934211 46.27802632 -12.84892175 44.23944199 -15.3046875 40.6171875 C-17.09593128 36.37791056 -16.60893094 31.90530686 -16.2421875 27.3984375 C-17.5621875 27.7284375 -18.8821875 28.0584375 -20.2421875 28.3984375 C-20.81174576 21.51311098 -20.62147577 16.72407611 -16.62890625 10.95703125 C-15.2421875 9.3984375 -15.2421875 9.3984375 -12.2421875 7.3984375 C-12.2421875 6.0784375 -12.2421875 4.7584375 -12.2421875 3.3984375 C-8.36613661 0.13249717 -4.94208365 0.01316886 0 0 Z " fill="#212121" transform="translate(340.2421875,261.6015625)"/>
<path d="M0 0 C2.64 0 5.28 0 8 0 C8.67099984 2.60311992 9.33695338 5.20735398 10 7.8125 C10.19078125 8.55048828 10.3815625 9.28847656 10.578125 10.04882812 C11.35262914 13.10535341 12 15.83373478 12 19 C12.66 19 13.32 19 14 19 C14.10957031 18.38253906 14.21914063 17.76507813 14.33203125 17.12890625 C15.4377266 11.22287499 16.95361435 5.64802441 19 0 C21.31 0 23.62 0 26 0 C23.03 8.91 20.06 17.82 17 27 C14.36 27 11.72 27 9 27 C6.03 18.09 3.06 9.18 0 0 Z " fill="#030303" transform="translate(300,414)"/>
<path d="M0 0 C-2.91765 1.9451 -4.62537285 2.45276317 -8 3 C-8 3.66 -8 4.32 -8 5 C-6.35 5 -4.7 5 -3 5 C-2.67 5.99 -2.34 6.98 -2 8 C-2.59167969 8.24234375 -3.18335938 8.4846875 -3.79296875 8.734375 C-10.58639739 11.61576398 -15.25097252 13.75784818 -18.25 20.8125 C-19.75064726 24.89692299 -20.62376524 28.67330023 -21 33 C-19.35 33 -17.7 33 -16 33 C-15.96132813 34.35931641 -15.96132813 34.35931641 -15.921875 35.74609375 C-15.51041833 44.58306092 -14.72097195 51.76222639 -8.75 58.5625 C-8.1725 59.036875 -7.595 59.51125 -7 60 C-6.67 58.68 -6.34 57.36 -6 56 C-5.67 56 -5.34 56 -5 56 C-5 58.97 -5 61.94 -5 65 C-11.42556652 63.29911475 -14.61316819 58.31138635 -17.875 52.875 C-19.95290501 47.58910129 -19.22606615 41.56792548 -19 36 C-19.66 36 -20.32 36 -21 36 C-21 36.66 -21 37.32 -21 38 C-21.99 38 -22.98 38 -24 38 C-25.00025591 21.12901693 -25.00025591 21.12901693 -19 14 C-16.79057478 11.80883449 -14.50669347 9.84209463 -12 8 C-12.99 7.67 -13.98 7.34 -15 7 C-14.00449135 4.3754772 -13.06036546 3.04971273 -10.875 1.25 C-7.01724826 -0.42728337 -4.18486798 -0.2127899 0 0 Z " fill="#121212" transform="translate(332,250)"/>
<path d="M0 0 C1.98 0 3.96 0 6 0 C6 11.88 6 23.76 6 36 C4.02 36 2.04 36 0 36 C0 24.12 0 12.24 0 0 Z " fill="#000000" transform="translate(258,405)"/>
<path d="M0 0 C2.41389574 2.64749856 2.93296825 4.46374599 3.375 8 C2.93296825 11.53625401 2.41389574 13.35250144 0 16 C-5.83957219 16.8342246 -5.83957219 16.8342246 -8.6953125 14.78125 C-10.42149149 12.42455053 -10.40088378 10.89898332 -10.375 8 C-10.38273437 7.13375 -10.39046875 6.2675 -10.3984375 5.375 C-9.41320369 -0.49776626 -5.28103296 -0.75443328 0 0 Z " fill="#F3F3F3" transform="translate(404,420)"/>
<path d="M0 0 C2.40224964 2.63472541 2.92591705 4.49200264 3.4375 8 C2.87914292 11.82873426 1.8778494 13.42508211 -1 16 C-4.0625 16.5 -4.0625 16.5 -7 16 C-9.28032884 14.32597036 -9.92590626 13.44165683 -10.3984375 10.625 C-10.39070313 9.75875 -10.38296875 8.8925 -10.375 8 C-10.38273437 7.13375 -10.39046875 6.2675 -10.3984375 5.375 C-9.41320369 -0.49776626 -5.28103296 -0.75443328 0 0 Z " fill="#F4F4F4" transform="translate(346,420)"/>
<path d="M0 0 C3.5 0.9375 3.5 0.9375 5.4375 2.625 C7.29748819 6.67320959 6.96017942 9.69230863 5.4375 13.8125 C3.5 15.9375 3.5 15.9375 0 16.4375 C-3.5 15.9375 -3.5 15.9375 -5.1953125 14.71875 C-6.92149149 12.36205053 -6.90088378 10.83648332 -6.875 7.9375 C-6.88273437 7.07125 -6.89046875 6.205 -6.8984375 5.3125 C-6.5 2.9375 -6.5 2.9375 -5.1953125 1.12109375 C-3.5 -0.0625 -3.5 -0.0625 0 0 Z " fill="#F5F5F5" transform="translate(283.5,420.0625)"/>
<path d="M0 0 C8.34463914 0.45439716 16.64053121 0.65336964 24.99682617 0.52514648 C30.61159095 0.46204547 30.61159095 0.46204547 32.8125 1.5625 C32.4825 2.5525 32.1525 3.5425 31.8125 4.5625 C3.13482902 4.75147492 3.13482902 4.75147492 -6.8125 4.25 C-8.00101562 4.19199219 -9.18953125 4.13398438 -10.4140625 4.07421875 C-13.39280369 3.52462002 -14.38721008 2.94373454 -16.1875 0.5625 C-10.69357718 -0.66341666 -5.56533355 -0.33776353 0 0 Z " fill="#141414" transform="translate(342.1875,248.4375)"/>
<path d="M0 0 C0.33 0 0.66 0 1 0 C1.16435547 1.30324219 1.16435547 1.30324219 1.33203125 2.6328125 C2.4796898 10.97433078 3.50971438 17.18112323 10 23 C10.33 21.68 10.66 20.36 11 19 C11.33 19 11.66 19 12 19 C12 21.97 12 24.94 12 28 C5.52010124 26.28473268 2.3913707 21.21749706 -1 15.8125 C-2.45304897 10.27275082 -1.25726184 5.50843499 0 0 Z " fill="#222222" transform="translate(315,287)"/>
<path d="M0 0 C0.33 0 0.66 0 1 0 C1 3.3 1 6.6 1 10 C2.65 10 4.3 10 6 10 C5.88655624 12.1464753 5.75893655 14.29220592 5.625 16.4375 C5.55539062 17.63246094 5.48578125 18.82742188 5.4140625 20.05859375 C5.20910156 21.51458984 5.20910156 21.51458984 5 23 C4.34 23.33 3.68 23.66 3 24 C3 20.37 3 16.74 3 13 C2.34 13 1.68 13 1 13 C1 13.66 1 14.32 1 15 C0.01 15 -0.98 15 -2 15 C-2.05429959 13.25034642 -2.09292823 11.50020213 -2.125 9.75 C-2.15980469 8.28820312 -2.15980469 8.28820312 -2.1953125 6.796875 C-1.99862781 3.9803502 -1.44568916 2.39050964 0 0 Z " fill="#111111" transform="translate(310,273)"/>
<path d="M0 0 C1.05692047 0.00424484 1.05692047 0.00424484 2.13519287 0.00857544 C4.3767626 0.01973449 6.61792686 0.04483057 8.859375 0.0703125 C10.38280671 0.08034786 11.90624471 0.08947274 13.4296875 0.09765625 C17.15638086 0.11965959 20.88283833 0.15415978 24.609375 0.1953125 C20.87930641 3.92538109 15.13670561 3.25271283 10.11328125 3.29296875 C8.13278876 3.28638904 6.15230758 3.27456307 4.171875 3.2578125 C3.15416016 3.25330078 2.13644531 3.24878906 1.08789062 3.24414062 C-1.40501009 3.23243687 -3.89778574 3.21604098 -6.390625 3.1953125 C-6.060625 3.8553125 -5.730625 4.5153125 -5.390625 5.1953125 C-6.710625 5.1953125 -8.030625 5.1953125 -9.390625 5.1953125 C-9.390625 4.5353125 -9.390625 3.8753125 -9.390625 3.1953125 C-10.050625 2.8653125 -10.710625 2.5353125 -11.390625 2.1953125 C-7.65430857 -0.20423294 -4.36267002 -0.03462437 0 0 Z " fill="#282828" transform="translate(340.390625,261.8046875)"/>
<path d="M0 0 C0.33 0 0.66 0 1 0 C1 2.64 1 5.28 1 8 C0.01 8 -0.98 8 -2 8 C-1.95359375 8.556875 -1.9071875 9.11375 -1.859375 9.6875 C-1.57439637 15.71276241 -2.55064316 20.00195233 -6 25 C-9.1875 28 -9.1875 28 -12 28 C-12 26.35 -12 24.7 -12 23 C-11.401875 22.938125 -10.80375 22.87625 -10.1875 22.8125 C-7.86605597 22.14269529 -7.86605597 22.14269529 -6.3125 20.125 C-4.38547634 15.53684843 -4.25055969 10.93343387 -4 6 C-2.68 6 -1.36 6 0 6 C0 4.02 0 2.04 0 0 Z " fill="#202020" transform="translate(378,281)"/>
<path d="M0 0 C1.12535156 0.09925781 2.25070312 0.19851562 3.41015625 0.30078125 C7.15989509 0.67894446 10.89132408 1.11253468 14.625 1.625 C14.625 1.955 14.625 2.285 14.625 2.625 C13.201875 2.8415625 13.201875 2.8415625 11.75 3.0625 C8.7315506 3.45435399 8.7315506 3.45435399 6.625 4.625 C3.95784797 4.61339107 1.34637843 4.52934123 -1.3125 4.375 C-2.04146484 4.34792969 -2.77042969 4.32085937 -3.52148438 4.29296875 C-8.90608504 3.98696945 -8.90608504 3.98696945 -11.37890625 2.078125 C-11.70761719 1.59859375 -12.03632813 1.1190625 -12.375 0.625 C-8.08610788 -0.23793025 -4.35246699 -0.38993046 0 0 Z " fill="#2D2D2D" transform="translate(338.375,248.375)"/>
<path d="M0 0 C0.66 0.33 1.32 0.66 2 1 C0.87185949 3.76907216 -0.20397351 5.18828324 -2.4375 7.25 C-5.64779416 10.69519373 -6.56618516 13.5476276 -8 18 C-8.66 17.34 -9.32 16.68 -10 16 C-10.66 16.99 -11.32 17.98 -12 19 C-11.72878457 12.49082968 -9.33676528 8.78289186 -5 4 C-2.125 1.5 -2.125 1.5 0 0 Z " fill="#171717" transform="translate(320,258)"/>
<path d="M0 0 C0.66796875 1.74609375 0.66796875 1.74609375 1 4 C-0.07421875 6.03515625 -0.07421875 6.03515625 -1.6875 8.0625 C-2.20699219 8.73410156 -2.72648437 9.40570313 -3.26171875 10.09765625 C-5.04415757 12.04832525 -6.78952707 13.55486393 -9 15 C-9.66 15 -10.32 15 -11 15 C-11 12.69 -11 10.38 -11 8 C-10.34 8 -9.68 8 -9 8 C-9 8.66 -9 9.32 -9 10 C-8.34 10 -7.68 10 -7 10 C-6.773125 9.46375 -6.54625 8.9275 -6.3125 8.375 C-4.56617944 5.21499137 -2.3597151 2.7323017 0 0 Z " fill="#181818" transform="translate(384,300)"/>
<path d="M0 0 C0.33 0 0.66 0 1 0 C1.03738281 0.66386719 1.07476562 1.32773437 1.11328125 2.01171875 C1.49526105 7.14223169 1.92177048 10.71724589 5 15 C5 15.66 5 16.32 5 17 C6.32 16.34 7.64 15.68 9 15 C9 16.98 9 18.96 9 21 C4.68919023 19.89150606 2.31889081 17.87678371 -0.12890625 14.28515625 C-1.88759202 9.67156353 -0.78948907 4.76038457 0 0 Z " fill="#313131" transform="translate(325,288)"/>
<path d="M0 0 C0.66 0 1.32 0 2 0 C2 2.64 2 5.28 2 8 C3.32 8.33 4.64 8.66 6 9 C5.67 11.64 5.34 14.28 5 17 C4.67 17 4.34 17 4 17 C4 14.69 4 12.38 4 10 C2.68 10.33 1.36 10.66 0 11 C0 7.37 0 3.74 0 0 Z " fill="#161616" transform="translate(320,279)"/>
<path d="M0 0 C1.07765625 0.00902344 2.1553125 0.01804687 3.265625 0.02734375 C4.08546875 0.03894531 4.9053125 0.05054688 5.75 0.0625 C3.20716494 2.60533506 1.84455338 2.49353635 -1.6875 2.8125 C-2.65558594 2.91046875 -3.62367188 3.0084375 -4.62109375 3.109375 C-7.25 3.0625 -7.25 3.0625 -10.25 1.0625 C-6.78777385 -0.00473961 -3.60960734 -0.03923486 0 0 Z " fill="#373737" transform="translate(359.25,261.9375)"/>
<path d="M0 0 C0.33 1.98 0.66 3.96 1 6 C-1.31 6 -3.62 6 -6 6 C-6 4.68 -6 3.36 -6 2 C-1.125 0 -1.125 0 0 0 Z " fill="#2B2B2B" transform="translate(376,253)"/>
<path d="M0 0 C2.98704569 0.49784095 4.39324263 1.26216175 7 3 C7 3.99 7 4.98 7 6 C5.35 5.67 3.7 5.34 2 5 C1.67 5.66 1.34 6.32 1 7 C1 5.35 1 3.7 1 2 C0.34 1.67 -0.32 1.34 -1 1 C-0.67 0.67 -0.34 0.34 0 0 Z " fill="#0E0E0E" transform="translate(375,251)"/>
<path d="M0 0 C0.66 0 1.32 0 2 0 C4.02558881 3.34939881 4.21738987 5.86962551 4.125 9.75 C4.10695313 10.73484375 4.08890625 11.7196875 4.0703125 12.734375 C4.03550781 13.85585938 4.03550781 13.85585938 4 15 C3.34 14.67 2.68 14.34 2 14 C2.04125 12.9275 2.0825 11.855 2.125 10.75 C2.00780624 7.23418706 1.67021593 5.92287789 0 3 C0 2.01 0 1.02 0 0 Z " fill="#323232" transform="translate(376,275)"/>
<path d="M0 0 C0.99 0.33 1.98 0.66 3 1 C2.38125 1.9075 1.7625 2.815 1.125 3.75 C-0.44389611 6.14948817 -1.80443821 8.40961612 -3 11 C-3.75 8.875 -3.75 8.875 -4 6 C-2.0625 2.6875 -2.0625 2.6875 0 0 Z " fill="#2A2A2A" transform="translate(325,271)"/>
<path d="M0 0 C2.31 0.33 4.62 0.66 7 1 C6.67 1.99 6.34 2.98 6 4 C-0.93 3.505 -0.93 3.505 -8 3 C-8 2.67 -8 2.34 -8 2 C-5.36 1.67 -2.72 1.34 0 1 C0 0.67 0 0.34 0 0 Z " fill="#4F4F4F" transform="translate(368,249)"/>
<path d="M0 0 C-1.98 0.99 -1.98 0.99 -4 2 C-2.35 2.33 -0.7 2.66 1 3 C1 3.33 1 3.66 1 4 C-0.60332791 4.08121924 -2.20784026 4.13929134 -3.8125 4.1875 C-4.70582031 4.22230469 -5.59914063 4.25710937 -6.51953125 4.29296875 C-9.41647515 3.95081002 -10.22555028 3.24606427 -12 1 C-7.93631321 0.22596442 -4.13574827 -0.0984702 0 0 Z " fill="#6A6A6A" transform="translate(338,248)"/>
<path d="M0 0 C0.93065133 2.60582371 1.14917407 3.64198224 0.0625 6.25 C-0.4634375 7.11625 -0.4634375 7.11625 -1 8 C-1.33 7.34 -1.66 6.68 -2 6 C-2.66 6.99 -3.32 7.98 -4 9 C-3.6875 5.625 -3.6875 5.625 -3 2 C-2.01 1.34 -1.02 0.68 0 0 Z " fill="#2E2E2E" transform="translate(312,268)"/>
<path d="M0 0 C-0.33 2.31 -0.66 4.62 -1 7 C-2.32 7.33 -3.64 7.66 -5 8 C-3.91891892 0 -3.91891892 0 0 0 Z " fill="#272727" transform="translate(387,294)"/>
<path d="M0 0 C3.36704285 -0.2295711 5.41370268 -0.33943529 8.375 1.375 C8.91125 1.91125 9.4475 2.4475 10 3 C10 3.66 10 4.32 10 5 C8.68 4.67 7.36 4.34 6 4 C6 3.34 6 2.68 6 2 C3.03 1.505 3.03 1.505 0 1 C0 0.67 0 0.34 0 0 Z " fill="#181818" transform="translate(363,263)"/>
<path d="M0 0 C4.29425875 1.07356469 4.74740471 1.5084773 7 5 C6.34 5.66 5.68 6.32 5 7 C3.35 4.69 1.7 2.38 0 0 Z " fill="#1F1F1F" transform="translate(370,270)"/>
</svg>
